<?xml version="1.0" encoding="UTF-8"?>
<svg xmlns="http://www.w3.org/2000/svg" width="2048" height="2048" viewBox="0 0 647 636">
  <path d="M 218,574 227,578 249,579 254,570 248,569 246,577 238,577 233,573 239,568 224,575 221,567 Z" fill="#808080" stroke="none"/>
  <path d="M 457,567 456,566 452,569 453,573 451,575 447,575 444,572 441,572 439,575 454,577 457,574 Z" fill="#808080" stroke="none"/>
  <path d="M 360,566 358,566 356,568 356,572 358,574 361,571 361,570 360,569 361,568 361,567 Z" fill="#808080" stroke="none"/>
  <path d="M 366,565 365,566 365,570 366,571 368,571 369,570 369,569 368,568 368,567 Z" fill="#808080" stroke="none"/>
  <path d="M 220,553 219,553 218,554 218,556 217,557 218,558 220,558 222,556 222,555 Z" fill="#808080" stroke="none"/>
  <path d="M 210,553 206,557 206,558 207,559 208,559 211,556 211,554 Z" fill="#808080" stroke="none"/>
  <path d="M 164,553 168,554 171,559 177,559 181,556 180,555 176,556 174,554 170,554 168,552 Z" fill="#808080" stroke="none"/>
  <path d="M 247,557 241,555 238,551 235,550 233,552 235,556 230,558 228,561 232,564 237,563 Z" fill="#808080" stroke="none"/>
  <path d="M 188,549 188,550 190,552 193,552 194,553 196,551 193,548 189,548 Z" fill="#808080" stroke="none"/>
  <path d="M 515,552 505,548 503,554 495,554 492,557 494,559 492,565 500,564 496,561 498,556 501,557 507,553 512,555 Z" fill="#808080" stroke="none"/>
  <path d="M 478,546 477,547 477,551 478,552 479,552 480,551 479,550 479,547 Z" fill="#808080" stroke="none"/>
  <path d="M 147,544 146,545 147,552 149,554 150,558 155,553 151,550 153,545 152,544 Z" fill="#808080" stroke="none"/>
  <path d="M 476,534 475,535 477,537 475,540 478,543 481,540 479,538 481,536 483,538 484,537 Z" fill="#808080" stroke="none"/>
  <path d="M 517,530 510,526 508,528 509,530 503,538 506,539 512,535 510,532 512,529 515,531 Z" fill="#808080" stroke="none"/>
  <path d="M 109,523 108,524 108,525 110,528 112,526 112,525 Z" fill="#808080" stroke="none"/>
  <path d="M 519,518 518,519 518,520 520,522 520,523 522,525 523,525 524,524 524,522 523,521 523,520 521,518 520,519 Z" fill="#808080" stroke="none"/>
  <path d="M 553,508 552,509 555,512 555,514 557,516 560,511 558,509 556,510 Z" fill="#808080" stroke="none"/>
  <path d="M 526,505 524,506 521,506 520,507 521,511 524,514 526,514 527,513 527,506 Z" fill="#808080" stroke="none"/>
  <path d="M 564,503 563,504 568,509 570,507 570,505 569,504 565,504 Z" fill="#808080" stroke="none"/>
  <path d="M 517,501 515,503 515,504 514,505 515,506 517,506 518,505 518,502 Z" fill="#808080" stroke="none"/>
  <path d="M 536,495 539,498 543,497 546,500 550,496 550,492 548,491 545,494 542,494 539,491 Z" fill="#808080" stroke="none"/>
  <path d="M 470,485 468,487 470,490 469,492 470,494 473,491 471,488 472,487 Z" fill="#808080" stroke="none"/>
  <path d="M 543,457 544,458 543,459 545,461 549,461 550,460 550,458 548,456 544,456 Z" fill="#808080" stroke="none"/>
  <path d="M 114,439 112,441 113,442 113,444 114,445 115,444 115,440 Z" fill="#808080" stroke="none"/>
  <path d="M 395,423 394,422 393,422 389,426 390,427 393,424 394,425 395,424 Z" fill="#808080" stroke="none"/>
  <path d="M 402,412 399,415 398,415 397,416 399,418 400,417 400,416 403,413 Z" fill="#808080" stroke="none"/>
  <path d="M 540,411 540,420 543,414 551,415 557,421 559,420 556,408 549,403 550,407 Z" fill="#808080" stroke="none"/>
  <path d="M 505,379 504,379 503,380 502,379 501,380 501,381 502,382 502,385 503,386 506,384 506,380 Z" fill="#808080" stroke="none"/>
  <path d="M 508,355 507,356 506,359 504,361 505,362 508,362 509,361 508,360 509,359 509,356 Z" fill="#808080" stroke="none"/>
  <path d="M 508,345 506,347 506,348 507,349 506,350 506,351 507,352 509,349 509,346 Z" fill="#808080" stroke="none"/>
  <path d="M 322,321 326,324 328,322 330,322 331,321 330,320 323,320 Z" fill="#808080" stroke="none"/>
  <path d="M 376,316 375,315 373,315 372,316 370,316 366,318 368,319 369,318 371,318 372,317 375,317 Z" fill="#808080" stroke="none"/>
  <path d="M 506,308 505,309 505,312 502,315 503,316 506,313 506,312 507,311 507,309 Z" fill="#808080" stroke="none"/>
  <path d="M 554,300 553,301 553,305 554,306 556,304 556,302 Z" fill="#808080" stroke="none"/>
  <path d="M 515,299 514,298 511,302 506,305 507,306 509,305 512,306 515,303 Z" fill="#808080" stroke="none"/>
  <path d="M 498,287 496,290 505,299 506,298 507,299 508,296 504,289 505,288 504,287 502,288 Z" fill="#808080" stroke="none"/>
  <path d="M 509,284 507,286 507,287 511,291 513,292 514,291 511,285 Z" fill="#808080" stroke="none"/>
  <path d="M 561,259 560,258 559,261 554,265 552,264 551,265 552,266 554,265 556,267 560,268 561,267 560,266 561,265 Z" fill="#808080" stroke="none"/>
  <path d="M 523,242 515,251 516,252 521,249 523,250 524,249 527,252 528,251 527,249 525,250 522,247 524,244 Z" fill="#808080" stroke="none"/>
  <path d="M 531,236 530,237 530,239 532,241 535,239 532,236 Z" fill="#808080" stroke="none"/>
  <path d="M 547,227 549,229 551,227 555,231 555,234 550,236 556,241 564,233 569,236 565,232 559,233 554,226 Z" fill="#808080" stroke="none"/>
  <path d="M 301,223 300,224 300,225 302,227 302,228 303,229 304,229 305,228 302,225 302,224 Z" fill="#808080" stroke="none"/>
  <path d="M 519,221 518,223 524,228 525,227 534,233 535,232 532,220 528,227 522,221 Z" fill="#808080" stroke="none"/>
  <path d="M 538,215 537,216 538,217 538,218 539,219 540,219 541,218 541,216 540,215 539,216 Z" fill="#808080" stroke="none"/>
  <path d="M 503,210 502,211 501,214 503,216 504,216 506,214 506,213 Z" fill="#808080" stroke="none"/>
  <path d="M 584,205 519,367 598,608 81,595 592,631 Z" fill="#808080" stroke="none"/>
  <path d="M 529,195 525,192 524,193 520,193 518,195 518,197 520,199 522,198 523,199 526,199 Z" fill="#808080" stroke="none"/>
  <path d="M 476,184 473,188 474,191 476,193 477,192 475,190 475,189 477,187 478,188 479,187 Z" fill="#808080" stroke="none"/>
  <path d="M 545,182 544,183 545,189 548,197 551,200 553,198 553,195 548,189 548,186 Z" fill="#808080" stroke="none"/>
  <path d="M 471,153 467,156 468,157 467,159 468,160 470,158 469,157 471,155 472,156 473,155 Z" fill="#808080" stroke="none"/>
  <path d="M 493,263 496,265 500,265 502,264 503,262 500,259 497,259 Z" fill="#828282" stroke="none"/>
  <path d="M 101,581 78,596 81,598 91,595 84,597 80,595 Z" fill="#848484" stroke="none"/>
  <path d="M 528,579 529,578 530,579 531,578 543,578 541,577 529,577 Z" fill="#848484" stroke="none"/>
  <path d="M 613,544 616,575 Z" fill="#848484" stroke="none"/>
  <path d="M 118,518 117,519 120,522 121,522 122,521 122,520 121,519 119,519 Z" fill="#848484" stroke="none"/>
  <path d="M 95,517 95,520 98,520 102,523 99,531 103,532 104,527 101,521 104,519 98,520 Z" fill="#848484" stroke="none"/>
  <path d="M 140,517 133,512 126,518 129,522 127,518 130,515 131,516 134,514 Z" fill="#848484" stroke="none"/>
  <path d="M 120,505 119,504 117,506 113,505 111,508 112,509 116,506 119,507 Z" fill="#848484" stroke="none"/>
  <path d="M 489,452 485,455 485,463 486,464 487,463 487,456 490,453 Z" fill="#848484" stroke="none"/>
  <path d="M 356,433 354,434 352,434 350,436 352,437 355,440 356,439 355,438 357,434 Z" fill="#848484" stroke="none"/>
  <path d="M 420,430 415,439 416,441 421,431 Z" fill="#848484" stroke="none"/>
  <path d="M 332,423 335,421 337,422 343,421 345,419 346,420 351,419 348,417 344,420 338,417 Z" fill="#848484" stroke="none"/>
  <path d="M 483,411 483,433 486,438 485,442 488,444 492,437 487,435 487,422 Z" fill="#848484" stroke="none"/>
  <path d="M 469,404 470,405 471,405 472,406 474,406 475,407 477,407 478,406 477,405 475,405 474,404 472,404 471,403 470,403 Z" fill="#848484" stroke="none"/>
  <path d="M 408,401 399,414 402,411 404,413 394,426 402,417 409,403 Z" fill="#848484" stroke="none"/>
  <path d="M 511,373 509,370 507,371 505,369 506,368 505,369 508,372 506,374 503,373 498,374 504,375 506,377 510,372 Z" fill="#848484" stroke="none"/>
  <path d="M 526,358 524,361 525,364 523,366 524,367 523,368 524,370 526,369 526,364 527,363 526,361 528,359 Z" fill="#848484" stroke="none"/>
  <path d="M 369,316 366,316 359,319 361,321 365,322 367,320 365,318 367,316 Z" fill="#848484" stroke="none"/>
  <path d="M 514,292 513,293 511,292 513,294 513,298 511,300 508,299 509,301 511,301 514,297 515,298 Z" fill="#848484" stroke="none"/>
  <path d="M 448,263 447,264 449,266 448,269 450,271 453,271 454,269 451,266 451,265 Z" fill="#848484" stroke="none"/>
  <path d="M 469,187 468,188 468,190 470,192 471,192 473,190 471,187 Z" fill="#848484" stroke="none"/>
  <path d="M 462,169 460,172 460,174 461,175 462,174 463,174 465,172 Z" fill="#848484" stroke="none"/>
  <path d="M 159,162 162,161 164,163 163,164 166,164 167,163 167,162 165,160 163,160 Z" fill="#848484" stroke="none"/>
  <path d="M 208,223 207,224 200,223 196,228 197,236 198,235 197,234 202,228 209,224 Z" fill="#898989" stroke="none"/>
  <path d="M 304,208 303,209 303,215 304,214 305,215 305,209 Z" fill="#8a8a8a" stroke="none"/>
  <path d="M 576,196 575,197 576,196 585,205 585,209 588,213 589,210 585,207 585,204 Z" fill="#8a8a8a" stroke="none"/>
  <path d="M 297,159 296,160 298,165 298,170 300,172 299,173 300,177 301,176 301,173 299,171 300,170 300,164 Z" fill="#8a8a8a" stroke="none"/>
  <path d="M 402,148 395,159 395,165 391,166 391,179 394,181 389,187 393,187 394,170 Z" fill="#8a8a8a" stroke="none"/>
  <path d="M 366,542 372,546 377,541 384,541 385,539 379,539 377,541 373,538 Z" fill="#8d8d8d" stroke="none"/>
  <path d="M 393,505 392,506 393,509 390,512 393,515 392,518 394,520 396,520 398,517 397,516 398,511 Z" fill="#8d8d8d" stroke="none"/>
  <path d="M 395,170 389,212 393,217 391,219 Z" fill="#8d8d8d" stroke="none"/>
  <path d="M 459,497 457,496 450,503 441,506 438,504 441,498 435,505 437,507 449,505 Z" fill="#8f8f8f" stroke="none"/>
  <path d="M 199,401 200,402 206,402 207,401 206,400 200,400 Z" fill="#8f8f8f" stroke="none"/>
  <path d="M 116,376 115,377 115,378 112,381 113,382 115,380 116,381 117,380 117,379 118,378 Z" fill="#8f8f8f" stroke="none"/>
  <path d="M 108,375 104,381 102,381 99,377 98,378 105,390 106,389 104,386 109,378 Z" fill="#8f8f8f" stroke="none"/>
  <path d="M 136,283 133,287 133,289 135,292 137,291 137,288 136,287 137,286 137,284 Z" fill="#8f8f8f" stroke="none"/>
  <path d="M 131,265 130,266 131,267 130,269 132,271 132,272 134,273 135,272 135,270 131,267 132,266 Z" fill="#8f8f8f" stroke="none"/>
  <path d="M 449,216 444,216 443,217 445,219 443,221 445,223 449,221 448,219 450,217 Z" fill="#8f8f8f" stroke="none"/>
  <path d="M 165,200 164,201 164,206 165,207 167,207 170,204 Z" fill="#8f8f8f" stroke="none"/>
  <path d="M 185,199 184,198 182,198 179,202 177,201 175,204 177,205 182,202 Z" fill="#8f8f8f" stroke="none"/>
  <path d="M 438,539 436,541 435,540 433,541 433,548 431,551 432,552 439,545 438,544 439,542 Z" fill="#919191" stroke="none"/>
  <path d="M 373,537 371,536 364,542 366,543 365,542 368,539 371,539 Z" fill="#919191" stroke="none"/>
  <path d="M 392,502 389,502 388,503 388,510 386,512 387,514 389,513 392,509 391,506 393,504 Z" fill="#919191" stroke="none"/>
  <path d="M 363,350 366,353 368,353 374,349 372,347 366,347 Z" fill="#919191" stroke="none"/>
  <path d="M 608,615 604,621 593,631 603,624 604,620 Z" fill="#939393" stroke="none"/>
  <path d="M 490,584 491,583 493,585 498,580 503,580 498,580 495,578 494,579 495,582 493,584 491,583 Z" fill="#939393" stroke="none"/>
  <path d="M 247,569 241,569 239,572 235,572 234,574 238,576 246,576 247,575 247,571 246,570 Z" fill="#939393" stroke="none"/>
  <path d="M 365,564 363,566 361,566 362,571 358,575 357,574 359,576 360,575 359,574 363,570 365,571 364,570 Z" fill="#939393" stroke="none"/>
  <path d="M 347,554 343,558 343,559 342,560 344,562 349,556 Z" fill="#939393" stroke="none"/>
  <path d="M 221,550 219,552 220,552 223,555 223,556 224,556 225,555 225,553 222,550 Z" fill="#939393" stroke="none"/>
  <path d="M 234,550 235,549 238,550 241,554 246,555 248,557 249,556 248,555 244,555 240,550 237,549 Z" fill="#939393" stroke="none"/>
  <path d="M 208,549 206,550 208,552 208,553 204,557 205,558 205,557 209,553 209,550 Z" fill="#939393" stroke="none"/>
  <path d="M 542,504 541,505 542,506 542,510 543,511 544,510 544,507 Z" fill="#939393" stroke="none"/>
  <path d="M 549,490 551,492 551,496 547,501 550,505 555,502 554,501 556,499 559,500 553,500 551,498 552,492 Z" fill="#939393" stroke="none"/>
  <path d="M 464,491 459,490 459,493 448,502 444,500 445,491 439,504 450,502 455,496 463,495 Z" fill="#939393" stroke="none"/>
  <path d="M 424,472 423,473 424,474 424,477 423,478 424,479 426,476 426,474 Z" fill="#939393" stroke="none"/>
  <path d="M 541,461 541,465 543,467 548,465 550,467 551,466 549,463 550,461 549,462 545,462 543,460 Z" fill="#939393" stroke="none"/>
  <path d="M 444,459 443,460 444,461 439,468 441,471 444,469 444,467 446,464 444,461 445,460 Z" fill="#939393" stroke="none"/>
  <path d="M 555,429 553,431 553,433 555,435 557,432 557,431 Z" fill="#939393" stroke="none"/>
  <path d="M 492,402 490,404 490,405 492,407 493,407 494,406 494,404 Z" fill="#939393" stroke="none"/>
  <path d="M 111,399 110,400 110,403 111,404 109,406 110,408 114,405 114,402 Z" fill="#939393" stroke="none"/>
  <path d="M 191,400 194,403 207,403 210,401 203,398 200,398 197,400 196,399 Z" fill="#939393" stroke="none"/>
  <path d="M 183,385 182,386 183,388 180,395 182,392 185,394 184,393 184,389 183,388 184,386 Z" fill="#939393" stroke="none"/>
  <path d="M 160,378 159,379 159,384 160,385 156,392 158,390 160,391 162,388 160,385 161,384 161,379 Z" fill="#939393" stroke="none"/>
  <path d="M 112,367 111,368 111,371 114,373 117,370 117,369 115,367 114,368 113,368 Z" fill="#939393" stroke="none"/>
  <path d="M 558,350 556,351 555,350 555,352 557,354 557,355 555,357 556,358 557,356 557,353 559,351 Z" fill="#939393" stroke="none"/>
  <path d="M 110,329 109,329 108,330 108,332 107,333 107,334 108,335 109,334 109,332 111,330 Z" fill="#939393" stroke="none"/>
  <path d="M 527,314 525,318 525,321 526,320 529,322 527,318 528,316 Z" fill="#939393" stroke="none"/>
  <path d="M 166,298 165,298 164,299 164,302 165,303 167,301 167,299 Z" fill="#939393" stroke="none"/>
  <path d="M 132,288 130,291 138,302 139,301 138,298 137,299 135,297 137,295 133,291 Z" fill="#939393" stroke="none"/>
  <path d="M 553,280 554,282 556,280 559,283 559,285 561,284 556,279 554,279 Z" fill="#939393" stroke="none"/>
  <path d="M 512,248 511,249 519,255 517,257 515,255 514,256 516,259 520,257 518,254 520,252 518,251 516,253 514,251 515,250 Z" fill="#939393" stroke="none"/>
  <path d="M 461,244 471,249 476,244 474,241 470,242 466,240 467,241 464,244 463,243 Z" fill="#939393" stroke="none"/>
  <path d="M 208,237 205,238 205,239 209,242 207,244 211,241 Z" fill="#939393" stroke="none"/>
  <path d="M 133,230 132,231 132,234 134,236 133,237 134,238 135,237 133,235 134,234 134,232 135,231 134,230 Z" fill="#939393" stroke="none"/>
  <path d="M 170,228 168,233 169,234 171,232 175,235 178,232 176,231 173,227 Z" fill="#939393" stroke="none"/>
  <path d="M 208,222 207,223 208,222 210,224 207,227 204,227 198,234 199,235 198,236 210,228 211,225 Z" fill="#939393" stroke="none"/>
  <path d="M 179,215 176,215 173,217 174,218 175,218 177,220 178,219 178,218 180,216 Z" fill="#939393" stroke="none"/>
  <path d="M 190,214 189,216 182,222 184,224 187,221 190,223 191,222 189,220 189,218 191,215 Z" fill="#939393" stroke="none"/>
  <path d="M 540,206 537,209 536,208 535,209 535,211 537,215 538,214 539,215 540,214 541,215 541,207 Z" fill="#939393" stroke="none"/>
  <path d="M 144,204 143,206 147,211 145,215 148,218 150,216 149,211 Z" fill="#939393" stroke="none"/>
  <path d="M 448,203 450,205 453,204 457,207 459,205 454,200 451,204 449,202 Z" fill="#939393" stroke="none"/>
  <path d="M 185,200 177,206 175,205 171,210 172,211 Z" fill="#939393" stroke="none"/>
  <path d="M 164,199 164,200 165,199 171,204 172,203 169,199 167,200 165,198 Z" fill="#939393" stroke="none"/>
  <path d="M 540,191 538,193 538,194 537,195 537,198 538,199 539,198 539,196 541,194 541,192 Z" fill="#939393" stroke="none"/>
  <path d="M 166,186 165,187 164,193 163,194 165,196 166,195 164,193 164,192 166,190 167,191 167,187 Z" fill="#939393" stroke="none"/>
  <path d="M 271,543 270,544 271,545 271,547 274,550 275,549 273,547 273,546 Z" fill="#959595" stroke="none"/>
  <path d="M 432,532 429,535 429,541 432,544 432,541 434,539 436,540 438,538 Z" fill="#959595" stroke="none"/>
  <path d="M 183,479 182,478 178,485 174,489 169,491 167,490 169,492 168,493 172,491 174,492 180,486 Z" fill="#959595" stroke="none"/>
  <path d="M 287,453 286,454 288,456 288,457 289,458 290,457 290,455 288,453 Z" fill="#959595" stroke="none"/>
  <path d="M 489,359 487,358 484,361 484,364 482,367 478,369 480,373 484,373 490,367 Z" fill="#959595" stroke="none"/>
  <path d="M 171,290 169,288 166,291 167,292 170,292 171,291 Z" fill="#959595" stroke="none"/>
  <path d="M 501,251 499,252 498,254 499,255 493,259 493,262 497,258 501,258 502,257 503,253 Z" fill="#959595" stroke="none"/>
  <path d="M 500,563 501,564 499,566 497,566 497,567 499,570 501,569 502,570 503,568 502,567 502,565 Z" fill="#969696" stroke="none"/>
  <path d="M 241,550 244,554 248,554 250,556 249,557 255,553 250,551 246,554 243,549 Z" fill="#969696" stroke="none"/>
  <path d="M 201,545 200,547 202,546 204,548 203,549 207,552 204,556 207,553 205,550 207,548 209,549 210,548 209,547 206,548 204,546 205,545 203,547 Z" fill="#969696" stroke="none"/>
  <path d="M 314,525 313,524 311,524 307,529 308,530 310,529 314,529 315,528 Z" fill="#969696" stroke="none"/>
  <path d="M 499,521 498,522 498,523 501,526 502,526 503,525 Z" fill="#969696" stroke="none"/>
  <path d="M 114,517 113,518 114,520 113,522 114,524 113,525 119,523 120,524 121,523 116,519 117,517 Z" fill="#969696" stroke="none"/>
  <path d="M 146,519 145,518 144,519 140,516 141,517 138,520 139,521 138,523 140,523 143,520 145,521 Z" fill="#969696" stroke="none"/>
  <path d="M 314,490 318,494 320,492 323,495 325,494 322,491 320,492 317,489 315,489 Z" fill="#969696" stroke="none"/>
  <path d="M 333,484 332,483 329,485 327,484 324,484 323,485 325,488 327,488 Z" fill="#969696" stroke="none"/>
  <path d="M 214,484 213,483 209,485 210,487 207,490 204,491 207,492 212,487 211,488 209,486 212,483 Z" fill="#969696" stroke="none"/>
  <path d="M 480,472 479,473 479,475 480,476 479,477 479,478 480,479 481,479 482,478 480,476 482,474 Z" fill="#969696" stroke="none"/>
  <path d="M 283,471 281,473 281,476 279,478 279,479 280,478 282,479 283,478 283,475 284,474 284,472 Z" fill="#969696" stroke="none"/>
  <path d="M 415,441 414,441 412,445 413,447 410,451 411,452 413,449 412,448 414,446 Z" fill="#969696" stroke="none"/>
  <path d="M 482,434 481,442 483,444 485,443 484,442 485,438 483,434 Z" fill="#969696" stroke="none"/>
  <path d="M 351,428 352,429 350,431 351,433 354,433 355,432 357,432 356,431 357,429 355,427 352,427 Z" fill="#969696" stroke="none"/>
  <path d="M 404,414 401,420 394,427 392,426 391,428 394,429 Z" fill="#969696" stroke="none"/>
  <path d="M 149,404 148,406 150,410 150,417 151,418 152,417 154,419 152,416 152,411 Z" fill="#969696" stroke="none"/>
  <path d="M 455,404 465,404 478,409 481,412 482,420 482,410 478,407 472,407 469,403 464,402 Z" fill="#969696" stroke="none"/>
  <path d="M 410,391 409,392 409,396 408,397 408,400 407,401 408,400 410,402 411,401 411,392 Z" fill="#969696" stroke="none"/>
  <path d="M 142,365 141,366 141,367 144,371 144,372 145,373 146,373 147,372 143,368 143,366 Z" fill="#969696" stroke="none"/>
  <path d="M 332,351 333,352 335,351 336,352 339,352 340,353 342,352 338,350 336,350 335,351 333,350 Z" fill="#969696" stroke="none"/>
  <path d="M 131,340 130,339 129,339 126,342 127,343 130,343 131,342 Z" fill="#969696" stroke="none"/>
  <path d="M 102,339 98,343 101,346 104,343 104,342 Z" fill="#969696" stroke="none"/>
  <path d="M 161,335 159,336 161,339 157,351 158,354 158,348 160,346 162,349 166,342 Z" fill="#969696" stroke="none"/>
  <path d="M 551,304 551,306 549,308 547,307 545,311 546,313 548,309 551,306 Z" fill="#969696" stroke="none"/>
  <path d="M 513,262 510,265 518,271 519,274 517,276 519,277 522,274 520,267 524,264 523,263 518,265 Z" fill="#969696" stroke="none"/>
  <path d="M 550,252 554,255 551,258 552,260 557,254 559,257 560,256 562,257 557,252 558,251 557,250 Z" fill="#969696" stroke="none"/>
  <path d="M 566,240 564,242 563,241 562,242 565,245 566,244 567,244 567,243 568,242 Z" fill="#969696" stroke="none"/>
  <path d="M 515,240 513,242 513,244 510,248 512,247 516,249 518,247 518,245 517,246 515,244 516,243 516,241 Z" fill="#969696" stroke="none"/>
  <path d="M 467,138 464,140 466,143 461,147 462,151 463,150 462,149 466,145 465,144 468,142 Z" fill="#969696" stroke="none"/>
  <path d="M 187,526 186,526 185,527 186,528 186,530 184,532 185,533 189,530 189,528 Z" fill="#999999" stroke="none"/>
  <path d="M 166,324 165,325 165,327 167,329 168,329 168,325 167,324 Z" fill="#999999" stroke="none"/>
  <path d="M 211,256 210,256 209,257 205,257 204,258 206,260 209,260 211,258 210,257 Z" fill="#999999" stroke="none"/>
  <path d="M 298,501 296,503 299,508 301,505 303,507 302,511 306,509 309,511 305,519 311,518 312,516 309,511 Z" fill="#9a9a9a" stroke="none"/>
  <path d="M 291,487 287,492 288,499 289,500 290,499 292,501 291,502 292,501 290,499 291,495 290,493 292,490 Z" fill="#9a9a9a" stroke="none"/>
  <path d="M 379,484 367,485 369,496 356,486 367,513 348,505 337,510 343,529 313,520 316,532 364,543 370,516 387,510 Z" fill="#9a9a9a" stroke="none"/>
  <path d="M 413,469 412,470 413,471 413,472 414,473 414,475 415,476 416,475 416,474 415,473 415,471 Z" fill="#9a9a9a" stroke="none"/>
  <path d="M 293,467 289,473 289,480 290,481 291,480 292,471 294,468 Z" fill="#9a9a9a" stroke="none"/>
  <path d="M 384,474 390,477 397,474 401,479 403,477 399,471 397,472 395,470 396,468 393,464 390,466 392,472 390,474 Z" fill="#9a9a9a" stroke="none"/>
  <path d="M 367,463 370,466 367,469 365,468 368,470 366,472 365,471 371,473 372,472 370,470 371,466 Z" fill="#9a9a9a" stroke="none"/>
  <path d="M 482,455 482,461 486,465 487,464 486,465 483,462 484,461 484,455 486,453 Z" fill="#9a9a9a" stroke="none"/>
  <path d="M 387,450 385,452 387,455 388,454 389,455 390,454 389,453 389,452 Z" fill="#9a9a9a" stroke="none"/>
  <path d="M 309,444 306,445 303,448 301,453 303,455 308,449 310,445 Z" fill="#9a9a9a" stroke="none"/>
  <path d="M 366,431 366,433 376,440 375,441 380,446 378,449 379,450 381,448 380,440 Z" fill="#9a9a9a" stroke="none"/>
  <path d="M 358,429 357,431 358,432 357,433 358,434 357,435 357,437 360,433 362,433 363,432 Z" fill="#9a9a9a" stroke="none"/>
  <path d="M 351,427 336,427 314,440 323,438 326,441 325,438 328,435 331,438 333,432 337,437 339,432 348,433 Z" fill="#9a9a9a" stroke="none"/>
  <path d="M 481,420 476,425 476,430 481,438 482,433 482,421 Z" fill="#9a9a9a" stroke="none"/>
  <path d="M 431,420 421,429 420,438 412,447 414,449 410,452 411,455 416,445 427,434 Z" fill="#9a9a9a" stroke="none"/>
  <path d="M 183,409 203,436 204,471 219,473 217,485 226,464 206,451 214,442 205,421 Z" fill="#9a9a9a" stroke="none"/>
  <path d="M 459,405 469,406 480,415 480,412 474,408 465,405 Z" fill="#9a9a9a" stroke="none"/>
  <path d="M 353,348 362,361 370,366 376,353 375,350 366,354 362,350 Z" fill="#9a9a9a" stroke="none"/>
  <path d="M 127,335 123,339 125,341 126,341 129,338 Z" fill="#9a9a9a" stroke="none"/>
  <path d="M 322,328 321,329 322,330 321,331 321,332 322,333 323,333 324,332 324,330 Z" fill="#9a9a9a" stroke="none"/>
  <path d="M 309,327 308,327 303,332 303,333 305,335 307,335 308,336 309,334 307,332 307,331 310,328 Z" fill="#9a9a9a" stroke="none"/>
  <path d="M 356,331 365,329 370,332 372,336 369,340 380,337 377,328 371,330 365,325 Z" fill="#9a9a9a" stroke="none"/>
  <path d="M 168,247 168,248 167,249 167,251 168,252 169,251 170,252 170,251 169,250 170,249 170,248 169,247 Z" fill="#9b9b9b" stroke="none"/>
  <path d="M 605,622 600,628 591,632 596,633 600,630 605,628 604,625 Z" fill="#9c9c9c" stroke="none"/>
  <path d="M 613,608 613,609 609,614 608,619 610,618 610,615 611,614 611,612 613,610 Z" fill="#9c9c9c" stroke="none"/>
  <path d="M 160,608 162,611 177,615 198,613 182,614 Z" fill="#9c9c9c" stroke="none"/>
  <path d="M 554,580 561,581 572,595 589,607 592,605 595,609 599,606 578,596 574,587 567,585 562,578 Z" fill="#9c9c9c" stroke="none"/>
  <path d="M 487,583 488,582 493,583 494,582 493,579 495,577 498,579 502,579 492,577 491,580 Z" fill="#9c9c9c" stroke="none"/>
  <path d="M 483,563 484,564 487,564 489,562 490,563 490,561 487,558 486,558 485,560 486,559 488,561 486,563 485,562 Z" fill="#9c9c9c" stroke="none"/>
  <path d="M 385,557 382,559 382,562 386,566 387,565 384,562 385,561 383,559 Z" fill="#9c9c9c" stroke="none"/>
  <path d="M 163,549 165,551 168,551 170,553 168,551 168,550 167,549 168,548 167,547 166,547 Z" fill="#9c9c9c" stroke="none"/>
  <path d="M 471,543 470,544 471,545 470,546 472,548 470,551 472,552 474,550 476,550 476,547 474,548 471,545 472,544 Z" fill="#9c9c9c" stroke="none"/>
  <path d="M 188,541 187,540 185,542 181,544 180,546 181,547 183,545 184,546 Z" fill="#9c9c9c" stroke="none"/>
  <path d="M 169,525 168,529 172,533 169,528 171,525 177,527 176,532 178,535 181,536 184,533 185,526 173,522 Z" fill="#9c9c9c" stroke="none"/>
  <path d="M 558,503 557,502 556,503 553,503 552,504 552,505 553,506 554,505 557,505 558,504 Z" fill="#9c9c9c" stroke="none"/>
  <path d="M 445,500 450,500 458,492 457,491 448,501 446,498 449,491 447,490 Z" fill="#9c9c9c" stroke="none"/>
  <path d="M 159,487 162,492 160,494 161,495 162,494 167,495 170,494 169,493 166,494 164,492 163,493 160,490 161,487 160,486 Z" fill="#9c9c9c" stroke="none"/>
  <path d="M 430,470 429,469 426,472 424,470 423,471 423,472 424,471 427,474 Z" fill="#9c9c9c" stroke="none"/>
  <path d="M 278,452 277,451 275,453 274,452 269,458 270,459 276,452 277,453 Z" fill="#9c9c9c" stroke="none"/>
  <path d="M 209,395 198,394 194,398 188,395 186,396 190,400 192,398 204,398 205,395 208,399 Z" fill="#9c9c9c" stroke="none"/>
  <path d="M 216,383 215,382 211,386 210,386 209,387 210,388 214,388 216,386 Z" fill="#9c9c9c" stroke="none"/>
  <path d="M 172,376 168,381 168,383 169,384 173,378 173,377 Z" fill="#9c9c9c" stroke="none"/>
  <path d="M 535,346 532,348 532,350 528,354 529,359 531,356 529,353 531,351 533,353 537,349 Z" fill="#9c9c9c" stroke="none"/>
  <path d="M 494,333 495,332 496,332 497,333 499,333 501,331 500,330 498,332 496,330 494,332 Z" fill="#9c9c9c" stroke="none"/>
  <path d="M 109,322 108,323 108,329 109,328 110,328 111,329 111,328 110,327 110,323 Z" fill="#9c9c9c" stroke="none"/>
  <path d="M 164,320 166,322 165,324 167,323 169,325 172,322 171,321 169,323 167,323 165,321 166,320 165,319 Z" fill="#9c9c9c" stroke="none"/>
  <path d="M 481,316 484,320 488,322 491,321 486,317 488,315 486,313 Z" fill="#9c9c9c" stroke="none"/>
  <path d="M 192,297 191,296 187,296 184,299 183,298 179,299 177,302 179,303 185,298 189,299 Z" fill="#9c9c9c" stroke="none"/>
  <path d="M 472,282 471,283 475,288 478,285 477,284 475,286 473,284 474,282 Z" fill="#9c9c9c" stroke="none"/>
  <path d="M 206,254 207,255 206,256 209,256 210,255 212,255 209,253 207,253 Z" fill="#9c9c9c" stroke="none"/>
  <path d="M 458,244 457,243 455,243 453,245 453,246 454,247 455,247 Z" fill="#9c9c9c" stroke="none"/>
  <path d="M 526,229 528,234 530,236 531,235 530,234 531,233 531,232 528,231 Z" fill="#9c9c9c" stroke="none"/>
  <path d="M 591,224 589,256 591,254 Z" fill="#9c9c9c" stroke="none"/>
  <path d="M 177,224 176,225 175,225 174,226 174,227 175,228 175,229 178,231 176,229 176,227 178,225 178,224 Z" fill="#9c9c9c" stroke="none"/>
  <path d="M 434,212 433,213 439,217 437,221 440,223 439,222 441,220 443,222 442,224 446,225 442,221 443,219 441,217 446,214 443,215 Z" fill="#9c9c9c" stroke="none"/>
  <path d="M 445,190 444,196 445,197 446,196 450,200 451,203 454,199 449,196 451,194 449,191 Z" fill="#9c9c9c" stroke="none"/>
  <path d="M 579,189 573,201 576,195 590,210 591,208 583,199 582,192 Z" fill="#9c9c9c" stroke="none"/>
  <path d="M 506,189 505,190 505,195 506,196 507,195 507,190 Z" fill="#9c9c9c" stroke="none"/>
  <path d="M 167,180 165,186 166,185 168,187 168,193 164,198 169,198 171,201 172,198 169,194 Z" fill="#9c9c9c" stroke="none"/>
  <path d="M 212,165 209,168 210,170 206,174 205,173 204,174 205,176 207,173 208,174 210,173 209,171 213,166 Z" fill="#9c9c9c" stroke="none"/>
  <path d="M 202,162 201,163 201,166 203,168 204,167 204,163 203,162 Z" fill="#9c9c9c" stroke="none"/>
  <path d="M 371,334 370,333 367,333 363,336 359,336 361,338 360,339 361,340 368,340 367,339 371,336 Z" fill="#9e9e9e" stroke="none"/>
  <path d="M 314,329 315,330 317,330 320,332 320,331 321,330 320,329 321,328 321,327 320,326 319,326 317,328 315,328 Z" fill="#9e9e9e" stroke="none"/>
  <path d="M 378,328 375,323 376,322 373,323 376,326 374,328 371,325 370,326 366,325 371,329 375,329 377,327 Z" fill="#9e9e9e" stroke="none"/>
  <path d="M 428,539 428,541 431,544 430,545 431,547 425,552 427,551 429,552 428,551 432,547 432,545 428,541 Z" fill="#9f9f9f" stroke="none"/>
  <path d="M 285,532 278,532 281,536 278,546 270,542 276,551 282,551 286,546 Z" fill="#9f9f9f" stroke="none"/>
  <path d="M 178,473 178,479 169,488 161,486 168,490 174,488 180,479 Z" fill="#9f9f9f" stroke="none"/>
  <path d="M 283,451 283,456 275,462 277,466 280,464 284,465 283,464 287,460 289,460 287,456 282,452 Z" fill="#9f9f9f" stroke="none"/>
  <path d="M 148,251 152,254 151,256 154,258 158,256 150,249 Z" fill="#9f9f9f" stroke="none"/>
  <path d="M 165,246 165,251 160,256 162,260 161,259 167,253 169,255 170,254 169,252 168,253 166,251 167,248 Z" fill="#9f9f9f" stroke="none"/>
  <path d="M 216,187 217,188 214,191 213,190 216,193 219,193 217,189 218,188 Z" fill="#9f9f9f" stroke="none"/>
  <path d="M 419,567 417,569 415,569 413,567 412,568 413,573 411,575 414,577 419,572 420,570 Z" fill="#a0a0a0" stroke="none"/>
  <path d="M 455,563 454,564 459,567 457,569 460,573 457,578 464,578 464,566 Z" fill="#a0a0a0" stroke="none"/>
  <path d="M 336,563 335,563 332,566 327,566 326,567 332,570 335,567 334,565 Z" fill="#a0a0a0" stroke="none"/>
  <path d="M 471,567 471,575 477,581 486,582 492,576 504,577 503,570 499,571 489,563 484,565 477,562 Z" fill="#a0a0a0" stroke="none"/>
  <path d="M 452,568 446,559 444,569 435,567 430,571 425,567 432,575 437,570 449,574 Z" fill="#a0a0a0" stroke="none"/>
  <path d="M 440,550 439,550 439,551 435,555 438,557 439,556 439,552 440,551 Z" fill="#a0a0a0" stroke="none"/>
  <path d="M 202,550 201,551 200,551 200,554 203,557 203,556 206,553 206,552 205,551 Z" fill="#a0a0a0" stroke="none"/>
  <path d="M 504,551 502,549 499,552 500,552 501,553 503,553 504,552 Z" fill="#a0a0a0" stroke="none"/>
  <path d="M 350,555 353,575 358,564 370,568 361,576 384,575 388,569 381,562 376,564 374,554 359,556 361,549 Z" fill="#a0a0a0" stroke="none"/>
  <path d="M 180,547 181,550 182,550 183,551 185,551 184,550 186,548 185,547 185,546 184,547 183,546 181,548 Z" fill="#a0a0a0" stroke="none"/>
  <path d="M 217,544 218,545 217,547 218,546 221,549 226,546 224,544 221,546 219,544 Z" fill="#a0a0a0" stroke="none"/>
  <path d="M 205,544 206,545 205,546 206,547 208,547 209,546 211,547 212,546 214,546 213,545 215,543 213,542 209,542 206,545 Z" fill="#a0a0a0" stroke="none"/>
  <path d="M 196,537 194,539 194,541 196,543 199,540 198,540 196,538 Z" fill="#a0a0a0" stroke="none"/>
  <path d="M 233,546 259,551 274,571 279,563 292,576 310,575 304,554 299,560 293,552 277,557 264,542 247,542 244,535 Z" fill="#a0a0a0" stroke="none"/>
  <path d="M 267,530 266,531 266,537 267,538 268,537 269,538 270,537 269,535 271,533 272,534 Z" fill="#a0a0a0" stroke="none"/>
  <path d="M 471,529 470,530 472,533 467,538 468,539 471,536 473,538 470,543 471,542 474,547 476,545 474,540 475,534 Z" fill="#a0a0a0" stroke="none"/>
  <path d="M 116,525 118,527 116,529 117,530 119,528 125,533 128,532 130,528 128,530 125,529 124,530 119,526 119,524 Z" fill="#a0a0a0" stroke="none"/>
  <path d="M 219,521 218,522 226,529 224,531 225,531 226,530 226,528 223,524 Z" fill="#a0a0a0" stroke="none"/>
  <path d="M 47,610 559,635 79,599 170,520 Z" fill="#a0a0a0" stroke="none"/>
  <path d="M 151,519 153,522 153,526 154,527 157,527 160,523 156,521 154,523 Z" fill="#a0a0a0" stroke="none"/>
  <path d="M 115,516 110,519 107,518 104,523 106,521 111,523 113,521 112,518 Z" fill="#a0a0a0" stroke="none"/>
  <path d="M 509,513 510,515 508,517 509,518 511,518 513,519 515,517 511,513 510,514 Z" fill="#a0a0a0" stroke="none"/>
  <path d="M 159,512 160,513 158,515 157,515 160,518 161,518 160,517 163,514 163,513 162,512 161,513 Z" fill="#a0a0a0" stroke="none"/>
  <path d="M 155,510 150,507 145,513 146,514 145,513 149,509 153,513 152,514 Z" fill="#a0a0a0" stroke="none"/>
  <path d="M 502,505 503,508 504,507 506,508 508,511 510,509 511,510 512,508 510,505 508,507 506,505 507,504 506,502 Z" fill="#a0a0a0" stroke="none"/>
  <path d="M 210,501 208,504 210,506 209,510 211,512 206,518 207,519 210,519 213,515 210,511 214,507 Z" fill="#a0a0a0" stroke="none"/>
  <path d="M 486,500 485,501 485,502 486,503 484,505 485,506 488,503 488,502 Z" fill="#a0a0a0" stroke="none"/>
  <path d="M 509,500 511,502 514,502 515,501 515,500 513,498 511,498 Z" fill="#a0a0a0" stroke="none"/>
  <path d="M 520,496 518,498 519,500 519,503 520,504 526,504 527,502 Z" fill="#a0a0a0" stroke="none"/>
  <path d="M 496,496 493,498 492,497 491,500 492,501 493,501 496,498 Z" fill="#a0a0a0" stroke="none"/>
  <path d="M 449,490 450,491 449,492 451,492 453,490 455,492 455,493 456,492 456,489 454,489 453,490 452,489 450,489 Z" fill="#a0a0a0" stroke="none"/>
  <path d="M 484,488 487,491 489,490 492,494 496,493 495,490 494,491 487,487 489,485 488,484 Z" fill="#a0a0a0" stroke="none"/>
  <path d="M 479,479 478,479 474,483 474,485 473,486 474,490 474,487 478,482 Z" fill="#a0a0a0" stroke="none"/>
  <path d="M 113,466 111,466 109,468 112,471 114,468 114,467 Z" fill="#a0a0a0" stroke="none"/>
  <path d="M 103,455 108,457 115,462 111,458 112,457 109,455 106,455 105,454 Z" fill="#a0a0a0" stroke="none"/>
  <path d="M 402,450 405,454 407,453 409,455 409,452 407,453 403,449 Z" fill="#a0a0a0" stroke="none"/>
  <path d="M 563,443 545,482 569,510 530,506 483,557 507,546 523,576 598,605 Z" fill="#a0a0a0" stroke="none"/>
  <path d="M 130,439 127,438 124,440 125,444 122,447 123,450 121,452 119,451 119,453 121,452 124,454 127,448 130,447 125,444 128,440 130,442 Z" fill="#a0a0a0" stroke="none"/>
  <path d="M 286,411 287,415 300,428 301,435 304,438 310,434 304,430 305,428 301,427 Z" fill="#a0a0a0" stroke="none"/>
  <path d="M 327,403 330,413 327,417 328,423 331,413 334,417 355,417 354,414 345,417 338,415 Z" fill="#a0a0a0" stroke="none"/>
  <path d="M 146,396 145,397 145,398 146,399 146,401 148,404 149,403 149,402 148,401 148,400 147,399 147,397 Z" fill="#a0a0a0" stroke="none"/>
  <path d="M 367,394 359,401 359,404 361,406 363,400 368,395 Z" fill="#a0a0a0" stroke="none"/>
  <path d="M 478,390 474,394 474,395 477,398 479,398 481,396 480,394 480,392 Z" fill="#a0a0a0" stroke="none"/>
  <path d="M 567,386 559,395 554,393 549,397 560,416 556,422 559,428 561,425 569,426 Z" fill="#a0a0a0" stroke="none"/>
  <path d="M 409,381 412,401 397,427 389,432 396,429 421,396 Z" fill="#a0a0a0" stroke="none"/>
  <path d="M 275,377 274,378 274,381 276,384 275,389 279,395 280,394 277,389 276,384 277,382 Z" fill="#a0a0a0" stroke="none"/>
  <path d="M 499,376 495,373 485,380 475,378 460,391 466,394 483,381 489,392 484,398 489,404 493,402 488,396 490,390 499,389 Z" fill="#a0a0a0" stroke="none"/>
  <path d="M 179,370 178,369 171,376 172,375 173,376 176,373 177,373 Z" fill="#a0a0a0" stroke="none"/>
  <path d="M 563,363 560,367 561,370 556,374 562,375 566,373 564,369 565,365 Z" fill="#a0a0a0" stroke="none"/>
  <path d="M 109,361 109,364 110,365 110,367 111,367 112,366 113,367 114,366 112,364 113,363 111,361 110,362 Z" fill="#a0a0a0" stroke="none"/>
  <path d="M 502,355 499,358 502,363 502,368 497,370 506,373 507,372 503,369 508,365 501,362 505,358 Z" fill="#a0a0a0" stroke="none"/>
  <path d="M 344,352 342,351 343,352 341,354 331,352 324,357 326,358 330,354 343,354 Z" fill="#a0a0a0" stroke="none"/>
  <path d="M 565,342 559,349 562,353 561,357 566,355 566,343 Z" fill="#a0a0a0" stroke="none"/>
  <path d="M 98,342 97,343 99,345 99,352 100,352 101,351 101,347 97,343 Z" fill="#a0a0a0" stroke="none"/>
  <path d="M 495,324 487,344 491,348 477,357 476,362 503,351 503,345 498,345 492,335 496,329 501,330 Z" fill="#a0a0a0" stroke="none"/>
  <path d="M 481,315 479,317 477,317 476,318 479,321 480,321 481,320 483,320 480,317 480,316 Z" fill="#a0a0a0" stroke="none"/>
  <path d="M 545,313 544,314 543,317 541,319 541,320 542,321 545,318 545,315 546,314 Z" fill="#a0a0a0" stroke="none"/>
  <path d="M 298,314 300,316 299,318 300,317 301,318 307,318 309,316 311,318 310,319 313,318 311,316 303,315 301,313 Z" fill="#a0a0a0" stroke="none"/>
  <path d="M 343,310 342,311 343,312 342,313 344,315 345,315 346,314 345,313 345,312 Z" fill="#a0a0a0" stroke="none"/>
  <path d="M 394,301 368,315 328,326 333,331 336,326 359,322 359,317 378,312 378,317 Z" fill="#a0a0a0" stroke="none"/>
  <path d="M 134,298 133,299 134,300 134,302 137,305 137,309 138,310 139,309 139,306 138,305 138,303 135,301 135,299 Z" fill="#a0a0a0" stroke="none"/>
  <path d="M 544,296 536,305 531,302 532,305 527,312 531,323 534,309 537,305 539,307 543,303 Z" fill="#a0a0a0" stroke="none"/>
  <path d="M 459,291 458,292 459,293 459,298 461,300 462,300 464,296 Z" fill="#a0a0a0" stroke="none"/>
  <path d="M 507,289 506,291 510,298 511,297 511,294 509,290 Z" fill="#a0a0a0" stroke="none"/>
  <path d="M 565,287 562,290 561,289 562,291 558,298 559,302 555,307 556,310 564,303 563,297 568,295 568,290 Z" fill="#a0a0a0" stroke="none"/>
  <path d="M 114,288 117,291 119,291 118,290 120,288 122,290 121,292 125,293 123,290 124,289 123,290 120,288 119,289 117,289 115,287 Z" fill="#a0a0a0" stroke="none"/>
  <path d="M 432,277 433,278 443,278 441,276 433,276 Z" fill="#a0a0a0" stroke="none"/>
  <path d="M 172,267 174,273 172,277 176,280 179,276 182,279 188,273 186,275 184,273 178,277 175,274 177,267 Z" fill="#a0a0a0" stroke="none"/>
  <path d="M 425,265 426,266 433,264 432,263 434,261 436,263 435,264 444,262 429,261 Z" fill="#a0a0a0" stroke="none"/>
  <path d="M 523,260 520,260 519,261 517,261 516,262 518,264 519,264 520,263 522,263 523,262 522,261 Z" fill="#a0a0a0" stroke="none"/>
  <path d="M 480,257 490,282 473,290 478,303 480,290 493,291 496,306 479,306 496,318 505,303 498,281 518,274 510,266 493,271 Z" fill="#a0a0a0" stroke="none"/>
  <path d="M 557,255 552,261 551,260 551,262 552,263 553,262 554,263 557,260 558,258 558,256 Z" fill="#a0a0a0" stroke="none"/>
  <path d="M 105,252 104,251 103,252 104,254 101,257 99,256 97,257 98,258 100,257 103,258 104,257 103,255 Z" fill="#a0a0a0" stroke="none"/>
  <path d="M 564,245 558,252 563,256 561,272 566,275 565,271 569,267 569,247 Z" fill="#a0a0a0" stroke="none"/>
  <path d="M 456,247 459,248 461,246 462,247 463,247 463,246 462,246 460,244 461,243 458,243 459,244 Z" fill="#a0a0a0" stroke="none"/>
  <path d="M 567,237 564,235 562,237 561,237 559,240 561,242 563,240 564,241 567,238 Z" fill="#a0a0a0" stroke="none"/>
  <path d="M 387,231 384,234 384,235 383,236 383,239 384,240 385,239 385,237 386,236 386,235 388,233 388,232 Z" fill="#a0a0a0" stroke="none"/>
  <path d="M 486,250 490,253 506,243 510,247 515,239 519,245 517,233 508,244 507,231 499,237 496,230 492,248 Z" fill="#a0a0a0" stroke="none"/>
  <path d="M 182,224 181,225 179,225 177,227 177,229 178,230 179,230 183,226 183,225 Z" fill="#a0a0a0" stroke="none"/>
  <path d="M 211,220 209,222 212,225 214,223 Z" fill="#a0a0a0" stroke="none"/>
  <path d="M 428,217 432,220 437,222 436,220 438,218 437,219 434,219 429,216 Z" fill="#a0a0a0" stroke="none"/>
  <path d="M 329,215 327,226 310,238 310,241 330,228 Z" fill="#a0a0a0" stroke="none"/>
  <path d="M 223,212 220,214 220,216 219,217 219,220 221,223 223,223 224,222 221,219 224,213 Z" fill="#a0a0a0" stroke="none"/>
  <path d="M 305,195 300,206 301,217 302,209 304,207 305,208 Z" fill="#a0a0a0" stroke="none"/>
  <path d="M 498,190 496,191 496,194 494,196 492,194 491,195 491,199 492,200 496,200 497,199 496,196 499,193 Z" fill="#a0a0a0" stroke="none"/>
  <path d="M 133,190 132,191 136,194 139,200 141,199 142,200 140,198 139,195 Z" fill="#a0a0a0" stroke="none"/>
  <path d="M 479,173 484,178 485,177 485,175 484,174 480,174 Z" fill="#a0a0a0" stroke="none"/>
  <path d="M 467,168 468,169 467,171 468,173 467,174 469,172 472,174 474,173 476,174 474,172 472,174 470,172 471,170 468,167 Z" fill="#a0a0a0" stroke="none"/>
  <path d="M 402,156 396,169 394,217 398,204 396,180 Z" fill="#a0a0a0" stroke="none"/>
  <path d="M 170,157 169,156 166,159 165,158 159,159 158,164 165,165 168,167 Z" fill="#a0a0a0" stroke="none"/>
  <path d="M 478,148 477,149 478,150 475,154 476,156 479,153 481,155 481,153 482,152 481,151 480,152 478,150 479,149 Z" fill="#a0a0a0" stroke="none"/>
  <path d="M 282,140 281,141 284,145 286,145 290,149 289,151 290,152 291,151 292,152 293,151 291,148 Z" fill="#a0a0a0" stroke="none"/>
  <path d="M 416,134 404,144 406,146 404,151 411,144 412,140 417,135 Z" fill="#a0a0a0" stroke="none"/>
  <path d="M 602,60 506,212 592,208 618,591 580,635 638,635 Z" fill="#a0a0a0" stroke="none"/>
  <path d="M 122,265 121,268 122,269 124,267 125,268 125,267 126,266 125,265 124,266 123,265 Z" fill="#a2a2a2" stroke="none"/>
  <path d="M 436,566 434,564 429,569 430,570 431,569 432,569 435,566 Z" fill="#a4a4a4" stroke="none"/>
  <path d="M 445,558 443,559 444,560 443,562 444,565 440,568 444,568 445,567 444,565 444,560 Z" fill="#a4a4a4" stroke="none"/>
  <path d="M 293,551 299,559 300,557 298,555 298,553 295,553 Z" fill="#a4a4a4" stroke="none"/>
  <path d="M 131,523 136,528 139,524 137,526 136,526 134,524 134,522 132,524 Z" fill="#a4a4a4" stroke="none"/>
  <path d="M 123,522 122,522 122,523 120,525 120,526 122,528 123,527 123,526 122,525 124,523 Z" fill="#a4a4a4" stroke="none"/>
  <path d="M 106,522 104,524 105,530 107,530 108,529 108,528 106,526 107,525 106,526 104,524 Z" fill="#a4a4a4" stroke="none"/>
  <path d="M 95,523 92,522 87,528 88,529 90,529 93,527 95,528 94,526 Z" fill="#a4a4a4" stroke="none"/>
  <path d="M 307,489 307,494 312,491 314,493 313,499 327,496 326,490 329,488 322,490 325,491 324,496 318,495 312,487 310,490 Z" fill="#a4a4a4" stroke="none"/>
  <path d="M 491,484 490,485 490,486 491,487 490,488 491,488 494,490 495,489 496,490 495,487 492,484 Z" fill="#a4a4a4" stroke="none"/>
  <path d="M 447,482 444,488 445,487 447,489 449,489 450,488 452,488 453,489 449,485 449,483 Z" fill="#a4a4a4" stroke="none"/>
  <path d="M 213,477 214,478 212,480 212,481 214,483 216,481 216,480 217,479 216,478 214,478 Z" fill="#a4a4a4" stroke="none"/>
  <path d="M 417,475 415,477 415,478 417,481 418,480 419,480 421,478 421,477 420,478 Z" fill="#a4a4a4" stroke="none"/>
  <path d="M 248,452 247,452 245,454 245,455 246,456 247,456 249,454 249,453 Z" fill="#a4a4a4" stroke="none"/>
  <path d="M 418,444 411,458 410,462 411,464 Z" fill="#a4a4a4" stroke="none"/>
  <path d="M 114,425 111,425 106,430 110,436 105,439 110,445 110,442 115,439 110,435 108,430 111,427 113,428 Z" fill="#a4a4a4" stroke="none"/>
  <path d="M 436,411 433,414 434,416 431,419 432,420 434,418 433,417 434,415 437,412 Z" fill="#a4a4a4" stroke="none"/>
  <path d="M 445,406 480,417 471,423 476,446 471,471 478,474 484,453 475,430 480,416 469,407 Z" fill="#a4a4a4" stroke="none"/>
  <path d="M 422,397 389,435 407,452 413,442 408,449 393,434 Z" fill="#a4a4a4" stroke="none"/>
  <path d="M 363,397 354,400 358,408 351,414 338,413 325,400 338,414 345,416 359,414 362,406 358,401 Z" fill="#a4a4a4" stroke="none"/>
  <path d="M 141,388 140,389 141,390 143,395 144,396 145,396 146,395 145,394 144,391 Z" fill="#a4a4a4" stroke="none"/>
  <path d="M 142,357 144,359 141,363 144,364 148,375 154,375 159,369 164,368 163,366 151,373 149,368 144,366 144,357 Z" fill="#a4a4a4" stroke="none"/>
  <path d="M 388,330 387,331 388,332 388,333 389,334 390,333 391,334 392,333 389,330 Z" fill="#a4a4a4" stroke="none"/>
  <path d="M 352,325 346,324 340,327 336,327 334,331 339,331 340,330 339,329 346,324 350,326 Z" fill="#a4a4a4" stroke="none"/>
  <path d="M 115,324 115,327 117,325 119,327 120,335 123,338 127,332 126,333 124,331 127,326 124,326 122,331 Z" fill="#a4a4a4" stroke="none"/>
  <path d="M 141,317 140,318 140,327 141,328 140,330 141,331 143,329 143,326 142,325 142,318 Z" fill="#a4a4a4" stroke="none"/>
  <path d="M 86,309 83,315 100,338 92,340 96,343 103,339 104,333 89,323 Z" fill="#a4a4a4" stroke="none"/>
  <path d="M 478,304 479,305 480,304 483,307 486,304 488,304 490,306 488,304 483,304 479,301 480,302 Z" fill="#a4a4a4" stroke="none"/>
  <path d="M 448,272 447,271 443,272 441,270 436,271 433,274 427,275 431,277 433,275 442,275 Z" fill="#a4a4a4" stroke="none"/>
  <path d="M 203,266 202,270 212,272 215,276 213,278 212,277 215,279 217,272 208,271 206,269 207,267 Z" fill="#a4a4a4" stroke="none"/>
  <path d="M 473,179 472,180 472,181 474,184 472,186 473,187 475,184 475,182 Z" fill="#a4a4a4" stroke="none"/>
  <path d="M 479,147 479,148 480,149 479,150 480,151 481,150 482,151 483,151 482,148 481,147 Z" fill="#a4a4a4" stroke="none"/>
  <path d="M 337,304 336,305 335,304 334,305 335,306 335,307 334,308 334,310 335,311 336,311 337,310 337,306 336,305 Z" fill="#aaaaaa" stroke="none"/>
  <path d="M 618,287 618,415 Z" fill="#aaaaaa" stroke="none"/>
  <path d="M 269,178 268,184 270,190 280,206 276,191 271,185 Z" fill="#aaaaaa" stroke="none"/>
  <path d="M 298,173 302,187 295,219 300,218 299,206 305,194 302,192 304,184 300,181 303,180 Z" fill="#aaaaaa" stroke="none"/>
  <path d="M 425,131 418,133 404,152 397,187 404,153 Z" fill="#aaaaaa" stroke="none"/>
  <path d="M 257,133 259,157 261,139 269,134 297,169 293,152 282,139 268,131 Z" fill="#aaaaaa" stroke="none"/>
  <path d="M 337,509 336,510 342,518 337,523 339,523 343,528 345,520 336,510 Z" fill="#adadad" stroke="none"/>
  <path d="M 359,494 361,496 360,503 353,510 350,508 350,505 349,510 351,512 356,511 362,504 360,501 363,497 Z" fill="#adadad" stroke="none"/>
  <path d="M 360,480 363,483 365,483 366,484 367,484 368,483 367,483 364,480 363,480 362,479 361,479 Z" fill="#adadad" stroke="none"/>
  <path d="M 300,195 297,201 297,211 292,216 297,213 297,206 Z" fill="#adadad" stroke="none"/>
  <path d="M 401,166 397,199 404,198 395,211 398,214 403,211 399,206 406,200 410,204 418,192 401,180 Z" fill="#adadad" stroke="none"/>
  <path d="M 454,493 453,494 452,493 450,493 447,499 448,500 Z" fill="#afafaf" stroke="none"/>
  <path d="M 431,463 430,462 429,465 427,467 424,465 423,466 423,470 424,469 426,471 429,468 430,469 431,468 Z" fill="#afafaf" stroke="none"/>
  <path d="M 180,401 182,403 181,404 182,405 184,403 186,404 192,404 193,403 187,399 Z" fill="#afafaf" stroke="none"/>
  <path d="M 110,379 109,379 107,381 107,385 108,386 109,386 111,384 110,383 110,382 111,381 111,380 Z" fill="#afafaf" stroke="none"/>
  <path d="M 134,274 132,276 131,275 134,278 133,280 135,283 136,282 136,278 Z" fill="#afafaf" stroke="none"/>
  <path d="M 205,252 203,251 202,252 203,253 201,255 200,255 199,257 201,256 205,256 206,255 204,253 Z" fill="#afafaf" stroke="none"/>
  <path d="M 171,212 170,212 169,213 170,214 170,215 168,217 169,218 171,216 173,216 173,215 Z" fill="#afafaf" stroke="none"/>
  <path d="M 198,431 200,436 199,445 201,440 201,435 Z" fill="#b1b1b1" stroke="none"/>
  <path d="M 408,567 407,566 402,571 403,571 404,570 405,571 406,571 406,570 408,568 Z" fill="#b3b3b3" stroke="none"/>
  <path d="M 470,560 471,561 470,562 470,565 471,566 473,564 474,565 476,564 475,563 476,562 474,561 471,561 Z" fill="#b3b3b3" stroke="none"/>
  <path d="M 423,559 422,560 422,562 425,565 425,566 426,565 427,566 427,565 425,563 425,561 Z" fill="#b3b3b3" stroke="none"/>
  <path d="M 470,531 468,532 466,531 467,532 465,534 466,533 468,535 466,537 471,533 Z" fill="#b3b3b3" stroke="none"/>
  <path d="M 227,530 225,532 224,532 224,534 226,536 228,534 228,533 227,532 Z" fill="#b3b3b3" stroke="none"/>
  <path d="M 230,513 229,514 229,515 227,517 229,519 230,519 232,517 233,517 232,516 233,515 Z" fill="#b3b3b3" stroke="none"/>
  <path d="M 209,507 207,508 207,510 209,512 207,514 204,512 201,516 202,517 203,516 206,517 210,512 208,510 Z" fill="#b3b3b3" stroke="none"/>
  <path d="M 481,497 481,500 482,501 482,504 483,505 485,503 482,499 483,498 482,497 Z" fill="#b3b3b3" stroke="none"/>
  <path d="M 109,485 108,486 109,487 108,488 109,489 109,491 111,493 113,490 114,491 115,490 114,489 112,491 109,487 110,486 Z" fill="#b3b3b3" stroke="none"/>
  <path d="M 132,483 133,492 130,495 137,501 141,497 144,501 149,502 148,496 136,497 134,495 136,490 Z" fill="#b3b3b3" stroke="none"/>
  <path d="M 430,461 428,459 427,459 425,461 423,465 424,464 426,466 427,466 428,465 428,463 Z" fill="#b3b3b3" stroke="none"/>
  <path d="M 442,458 440,460 440,463 438,465 436,463 435,464 436,465 436,468 437,467 438,468 441,464 440,461 Z" fill="#b3b3b3" stroke="none"/>
  <path d="M 108,458 107,468 113,465 112,473 124,474 120,486 126,489 121,485 128,472 116,466 131,466 133,477 138,472 133,457 128,455 122,465 Z" fill="#b3b3b3" stroke="none"/>
  <path d="M 131,442 130,443 128,441 126,443 126,444 127,445 128,444 129,445 131,443 Z" fill="#b3b3b3" stroke="none"/>
  <path d="M 105,413 105,418 106,419 107,418 108,418 109,419 110,418 110,417 Z" fill="#b3b3b3" stroke="none"/>
  <path d="M 163,375 162,376 163,378 162,379 162,383 164,384 165,382 164,381 164,377 163,376 164,375 Z" fill="#b3b3b3" stroke="none"/>
  <path d="M 118,370 115,373 115,374 116,375 117,375 119,377 119,372 118,371 Z" fill="#b3b3b3" stroke="none"/>
  <path d="M 109,365 108,365 109,370 107,372 106,371 103,376 100,374 99,375 102,378 110,371 Z" fill="#b3b3b3" stroke="none"/>
  <path d="M 122,363 120,360 116,363 115,362 114,363 112,361 114,363 113,364 114,365 116,364 121,364 Z" fill="#b3b3b3" stroke="none"/>
  <path d="M 110,352 106,356 107,357 107,360 108,361 108,359 110,357 109,356 111,353 Z" fill="#b3b3b3" stroke="none"/>
  <path d="M 110,313 108,315 107,314 106,315 106,320 107,319 110,322 108,319 108,318 111,316 111,314 Z" fill="#b3b3b3" stroke="none"/>
  <path d="M 475,271 473,272 472,275 473,278 468,284 471,287 469,285 469,283 476,278 474,276 474,274 476,272 Z" fill="#b3b3b3" stroke="none"/>
  <path d="M 468,264 466,266 467,267 468,267 470,269 471,268 469,266 470,265 469,264 Z" fill="#b3b3b3" stroke="none"/>
  <path d="M 477,256 475,258 476,259 478,259 484,264 483,265 484,263 478,258 479,257 Z" fill="#b3b3b3" stroke="none"/>
  <path d="M 197,248 198,249 196,251 194,250 199,251 201,253 197,256 195,255 198,257 202,253 201,252 202,251 Z" fill="#b3b3b3" stroke="none"/>
  <path d="M 121,244 126,249 125,251 127,252 128,251 125,248 126,246 125,245 124,246 122,244 Z" fill="#b3b3b3" stroke="none"/>
  <path d="M 494,232 494,234 493,235 493,237 492,238 493,238 494,239 495,238 494,237 496,235 496,234 Z" fill="#b3b3b3" stroke="none"/>
  <path d="M 225,235 224,236 220,231 211,236 215,240 214,242 Z" fill="#b3b3b3" stroke="none"/>
  <path d="M 221,212 220,213 218,213 217,212 215,215 218,218 218,217 219,216 219,214 Z" fill="#b3b3b3" stroke="none"/>
  <path d="M 485,210 484,211 482,210 483,211 481,213 480,212 479,213 479,215 480,216 482,215 484,216 485,215 482,212 Z" fill="#b3b3b3" stroke="none"/>
  <path d="M 424,210 424,213 427,216 429,215 434,218 436,217 431,213 433,211 428,209 Z" fill="#b3b3b3" stroke="none"/>
  <path d="M 198,209 192,215 191,214 192,215 191,216 192,218 191,219 193,221 197,217 195,214 199,210 Z" fill="#b3b3b3" stroke="none"/>
  <path d="M 453,211 453,210 450,207 451,206 448,209 446,207 445,209 446,211 448,210 452,212 Z" fill="#b3b3b3" stroke="none"/>
  <path d="M 508,205 507,206 508,207 506,209 505,208 504,208 504,209 506,211 507,210 508,211 509,210 509,207 508,206 Z" fill="#b3b3b3" stroke="none"/>
  <path d="M 186,207 183,204 178,208 183,210 181,212 177,212 175,210 172,212 171,211 175,215 183,210 184,211 Z" fill="#b3b3b3" stroke="none"/>
  <path d="M 434,197 441,204 444,201 440,198 441,199 438,201 435,198 436,196 Z" fill="#b3b3b3" stroke="none"/>
  <path d="M 133,189 138,193 134,189 131,191 134,205 137,205 144,212 135,194 131,191 Z" fill="#b3b3b3" stroke="none"/>
  <path d="M 169,174 167,178 169,180 170,193 173,195 170,192 169,180 172,176 Z" fill="#b3b3b3" stroke="none"/>
  <path d="M 427,541 425,544 427,546 424,549 420,544 419,545 422,549 426,550 428,548 429,543 Z" fill="#b5b5b5" stroke="none"/>
  <path d="M 276,532 277,533 275,535 272,536 270,539 277,543 279,541 279,535 Z" fill="#b5b5b5" stroke="none"/>
  <path d="M 283,454 282,453 277,454 275,452 276,453 273,456 274,457 273,460 274,461 276,460 274,457 276,455 279,455 281,457 Z" fill="#b5b5b5" stroke="none"/>
  <path d="M 443,564 442,564 441,565 440,564 437,567 438,568 439,567 442,566 443,565 Z" fill="#b6b6b6" stroke="none"/>
  <path d="M 380,553 382,555 384,553 385,554 386,553 383,551 382,551 Z" fill="#b6b6b6" stroke="none"/>
  <path d="M 116,530 116,533 117,534 119,534 120,533 121,534 124,534 122,534 120,533 118,531 118,530 117,531 Z" fill="#b6b6b6" stroke="none"/>
  <path d="M 263,526 264,530 262,532 261,531 263,539 261,541 256,541 260,543 264,540 265,541 265,532 Z" fill="#b6b6b6" stroke="none"/>
  <path d="M 451,523 450,524 451,525 451,526 449,528 450,529 451,528 453,528 453,527 452,526 453,525 Z" fill="#b6b6b6" stroke="none"/>
  <path d="M 305,520 304,520 303,521 302,520 301,521 301,522 303,524 305,522 Z" fill="#b6b6b6" stroke="none"/>
  <path d="M 215,515 214,515 209,521 210,520 214,520 215,519 215,517 214,516 Z" fill="#b6b6b6" stroke="none"/>
  <path d="M 336,508 333,510 339,515 326,526 332,523 334,524 341,518 335,510 Z" fill="#b6b6b6" stroke="none"/>
  <path d="M 209,498 207,500 204,498 205,499 201,502 206,508 208,506 206,503 Z" fill="#b6b6b6" stroke="none"/>
  <path d="M 450,476 447,481 453,488 457,489 461,482 459,481 456,486 454,484 454,479 Z" fill="#b6b6b6" stroke="none"/>
  <path d="M 330,482 325,476 315,484 309,477 303,493 312,497 303,492 308,481 319,489 319,482 321,485 Z" fill="#b6b6b6" stroke="none"/>
  <path d="M 293,472 292,480 289,481 293,488 291,499 296,502 299,499 301,502 299,495 294,491 296,486 293,482 Z" fill="#b6b6b6" stroke="none"/>
  <path d="M 251,465 250,466 251,467 251,471 252,472 253,471 255,473 255,472 253,469 253,467 Z" fill="#b6b6b6" stroke="none"/>
  <path d="M 424,462 421,464 421,471 418,474 420,477 422,475 422,465 Z" fill="#b6b6b6" stroke="none"/>
  <path d="M 198,458 196,459 194,464 191,467 192,468 197,467 201,464 Z" fill="#b6b6b6" stroke="none"/>
  <path d="M 251,451 249,451 250,454 246,457 247,459 248,458 251,461 250,463 252,460 248,456 252,452 Z" fill="#b6b6b6" stroke="none"/>
  <path d="M 383,450 379,462 363,460 371,476 359,466 352,509 361,478 374,484 391,472 Z" fill="#b6b6b6" stroke="none"/>
  <path d="M 334,433 332,436 333,437 331,439 330,438 341,447 345,446 343,447 338,443 339,439 335,436 336,434 Z" fill="#b6b6b6" stroke="none"/>
  <path d="M 359,435 364,434 369,439 370,446 374,442 374,440 364,432 Z" fill="#b6b6b6" stroke="none"/>
  <path d="M 111,424 104,430 104,433 101,436 110,446 104,439 109,436 105,430 Z" fill="#b6b6b6" stroke="none"/>
  <path d="M 450,410 462,414 462,429 469,436 464,448 473,450 464,463 473,468 470,418 474,414 Z" fill="#b6b6b6" stroke="none"/>
  <path d="M 422,399 394,434 408,448 426,419 409,444 396,435 Z" fill="#b6b6b6" stroke="none"/>
  <path d="M 324,399 338,412 351,413 357,408 353,400 360,398 348,400 354,408 350,413 343,413 Z" fill="#b6b6b6" stroke="none"/>
  <path d="M 141,392 143,397 142,402 149,415 149,412 144,404 144,397 Z" fill="#b6b6b6" stroke="none"/>
  <path d="M 474,389 475,392 478,387 481,390 482,395 489,396 484,383 480,383 Z" fill="#b6b6b6" stroke="none"/>
  <path d="M 384,354 378,366 373,371 370,371 370,373 374,373 381,368 385,357 Z" fill="#b6b6b6" stroke="none"/>
  <path d="M 346,354 330,356 324,361 321,360 311,369 315,369 321,362 331,357 Z" fill="#b6b6b6" stroke="none"/>
  <path d="M 143,353 145,357 145,366 149,367 151,365 150,364 147,366 145,364 145,355 Z" fill="#b6b6b6" stroke="none"/>
  <path d="M 89,337 91,340 93,338 95,338 96,339 98,339 99,338 95,336 93,338 92,338 90,336 Z" fill="#b6b6b6" stroke="none"/>
  <path d="M 350,327 348,325 349,326 347,328 343,327 340,329 341,330 340,331 345,331 344,330 346,328 348,329 Z" fill="#b6b6b6" stroke="none"/>
  <path d="M 126,321 125,320 122,323 120,322 118,324 116,322 115,323 122,330 Z" fill="#b6b6b6" stroke="none"/>
  <path d="M 105,316 99,319 100,322 104,326 104,324 106,322 105,321 Z" fill="#b6b6b6" stroke="none"/>
  <path d="M 121,297 119,300 119,303 122,306 123,304 122,303 121,304 119,302 121,300 122,301 122,298 Z" fill="#b6b6b6" stroke="none"/>
  <path d="M 130,294 132,305 138,313 139,331 136,337 140,332 141,314 135,308 Z" fill="#b6b6b6" stroke="none"/>
  <path d="M 480,291 478,299 493,306 495,304 494,296 491,304 484,303 479,299 483,290 Z" fill="#b6b6b6" stroke="none"/>
  <path d="M 178,266 179,267 177,269 178,270 178,272 177,273 179,275 180,274 182,274 184,272 179,268 180,267 Z" fill="#b6b6b6" stroke="none"/>
  <path d="M 207,266 208,267 207,268 208,270 211,271 213,270 214,271 216,270 218,271 219,270 218,271 215,268 216,267 215,266 212,266 211,265 210,266 Z" fill="#b6b6b6" stroke="none"/>
  <path d="M 104,248 97,254 96,257 97,259 101,258 98,259 96,257 99,254 101,256 103,254 104,255 102,253 104,250 105,251 Z" fill="#b6b6b6" stroke="none"/>
  <path d="M 250,220 252,221 254,218 259,220 260,218 259,217 260,218 258,220 253,216 Z" fill="#b6b6b6" stroke="none"/>
  <path d="M 472,179 469,182 467,181 463,186 464,189 463,186 466,183 469,186 471,186 473,184 471,181 Z" fill="#b6b6b6" stroke="none"/>
  <path d="M 464,163 465,164 464,167 468,166 471,169 469,167 474,164 473,162 474,163 472,165 468,162 465,164 Z" fill="#b6b6b6" stroke="none"/>
  <path d="M 468,136 469,137 468,138 471,141 469,145 475,140 476,141 475,140 471,140 Z" fill="#b6b6b6" stroke="none"/>
  <path d="M 426,535 423,533 421,535 420,535 419,536 421,538 420,540 421,538 424,535 Z" fill="#b9b9b9" stroke="none"/>
  <path d="M 182,335 180,334 175,339 174,338 176,340 177,339 179,341 Z" fill="#b9b9b9" stroke="none"/>
  <path d="M 338,515 333,511 331,519 325,525 323,524 322,525 325,526 335,516 Z" fill="#bababa" stroke="none"/>
  <path d="M 386,458 385,459 385,464 383,466 384,467 383,469 384,471 387,471 388,470 388,465 389,464 389,462 Z" fill="#bababa" stroke="none"/>
  <path d="M 471,449 469,451 467,451 466,450 468,454 465,458 469,456 469,454 472,450 Z" fill="#bababa" stroke="none"/>
  <path d="M 211,442 209,444 210,445 211,444 213,446 213,447 215,449 216,449 217,448 217,446 214,443 213,444 Z" fill="#bababa" stroke="none"/>
  <path d="M 323,440 312,445 307,462 294,471 295,491 309,510 312,499 302,493 308,476 303,479 300,470 Z" fill="#bababa" stroke="none"/>
  <path d="M 156,440 157,442 154,443 152,450 154,455 151,456 151,463 157,467 160,465 161,460 156,454 158,444 Z" fill="#bababa" stroke="none"/>
  <path d="M 364,435 353,444 361,454 346,503 355,501 350,488 362,474 362,460 373,458 376,467 383,455 371,453 Z" fill="#bababa" stroke="none"/>
  <path d="M 434,417 416,451 413,465 418,473 423,461 417,462 418,451 438,422 Z" fill="#bababa" stroke="none"/>
  <path d="M 439,410 440,412 448,411 457,413 460,416 460,423 461,414 459,412 449,410 442,412 Z" fill="#bababa" stroke="none"/>
  <path d="M 174,411 159,428 171,415 180,417 189,428 186,448 199,458 198,432 180,410 Z" fill="#bababa" stroke="none"/>
  <path d="M 313,323 302,323 295,331 296,337 302,333 307,339 293,344 298,356 313,352 302,347 315,339 302,333 Z" fill="#bababa" stroke="none"/>
  <path d="M 126,320 124,316 122,318 119,318 116,320 115,322 116,321 118,323 120,321 122,322 125,319 Z" fill="#bababa" stroke="none"/>
  <path d="M 136,312 137,321 134,329 131,332 135,337 138,331 Z" fill="#bababa" stroke="none"/>
  <path d="M 119,304 120,307 123,310 124,309 124,307 123,306 122,307 Z" fill="#bababa" stroke="none"/>
  <path d="M 163,243 162,244 164,246 160,253 156,253 152,250 159,256 164,251 163,247 164,246 162,244 Z" fill="#bbbbbb" stroke="none"/>
  <path d="M 272,635 296,635 295,634 Z" fill="#bcbcbc" stroke="none"/>
  <path d="M 131,623 131,625 142,635 146,635 135,628 Z" fill="#bcbcbc" stroke="none"/>
  <path d="M 642,603 644,627 639,635 644,627 642,615 643,607 646,606 Z" fill="#bcbcbc" stroke="none"/>
  <path d="M 335,571 345,573 346,570 348,572 351,568 348,565 350,567 348,569 338,571 336,569 341,566 341,564 Z" fill="#bcbcbc" stroke="none"/>
  <path d="M 325,561 326,562 325,563 325,566 326,566 327,565 329,565 328,564 329,563 329,562 328,561 Z" fill="#bcbcbc" stroke="none"/>
  <path d="M 343,557 341,555 339,557 337,556 335,558 337,560 336,559 338,557 340,559 342,559 Z" fill="#bcbcbc" stroke="none"/>
  <path d="M 123,488 121,488 119,485 118,486 115,485 116,487 115,489 116,490 114,492 113,491 112,493 118,487 Z" fill="#bcbcbc" stroke="none"/>
  <path d="M 185,482 183,484 182,487 179,490 178,490 179,491 183,488 183,486 Z" fill="#bcbcbc" stroke="none"/>
  <path d="M 115,482 113,480 109,484 110,485 111,485 114,482 115,483 Z" fill="#bcbcbc" stroke="none"/>
  <path d="M 117,466 119,469 122,469 125,465 128,468 126,471 130,469 132,473 133,471 131,467 129,469 124,464 121,468 118,465 Z" fill="#bcbcbc" stroke="none"/>
  <path d="M 86,437 94,444 97,442 96,441 93,441 90,438 90,437 88,438 Z" fill="#bcbcbc" stroke="none"/>
  <path d="M 106,406 101,411 101,413 104,416 104,417 104,413 105,412 104,410 Z" fill="#bcbcbc" stroke="none"/>
  <path d="M 194,386 193,387 194,389 191,393 193,394 192,393 194,391 196,393 195,394 197,394 198,393 196,391 198,389 199,390 200,388 198,389 Z" fill="#bcbcbc" stroke="none"/>
  <path d="M 209,383 204,387 206,389 203,392 204,393 206,393 205,392 207,390 205,388 208,385 211,385 Z" fill="#bcbcbc" stroke="none"/>
  <path d="M 208,374 206,376 205,375 204,375 203,376 203,379 204,380 206,378 205,377 Z" fill="#bcbcbc" stroke="none"/>
  <path d="M 108,369 105,370 101,368 98,372 95,370 94,373 97,372 99,374 100,373 103,375 104,372 106,370 107,371 Z" fill="#bcbcbc" stroke="none"/>
  <path d="M 87,356 86,357 88,363 92,368 94,365 93,366 89,362 90,359 Z" fill="#bcbcbc" stroke="none"/>
  <path d="M 452,346 449,351 450,352 452,351 454,353 455,353 456,350 455,350 453,348 454,347 Z" fill="#bcbcbc" stroke="none"/>
  <path d="M 180,342 179,342 176,345 175,345 175,348 174,349 175,350 178,347 178,345 Z" fill="#bcbcbc" stroke="none"/>
  <path d="M 487,340 483,342 485,344 485,349 482,352 483,352 486,348 485,346 487,343 Z" fill="#bcbcbc" stroke="none"/>
  <path d="M 179,326 177,329 178,333 175,338 181,333 183,335 180,340 184,337 184,334 Z" fill="#bcbcbc" stroke="none"/>
  <path d="M 483,321 487,324 489,324 491,326 492,326 493,324 491,322 490,323 487,323 Z" fill="#bcbcbc" stroke="none"/>
  <path d="M 163,321 162,321 162,322 161,323 161,325 162,326 164,324 164,322 Z" fill="#bcbcbc" stroke="none"/>
  <path d="M 164,317 165,317 169,322 172,319 174,321 173,320 174,317 173,317 170,321 167,317 165,316 Z" fill="#bcbcbc" stroke="none"/>
  <path d="M 111,310 110,309 108,311 107,310 106,311 106,314 105,315 107,313 108,314 110,312 111,313 Z" fill="#bcbcbc" stroke="none"/>
  <path d="M 169,301 165,304 164,303 166,306 167,305 169,307 167,310 166,309 168,311 167,312 171,310 170,311 168,309 170,307 171,308 Z" fill="#bcbcbc" stroke="none"/>
  <path d="M 192,292 191,292 189,294 191,294 193,296 193,297 191,299 194,297 194,295 Z" fill="#bcbcbc" stroke="none"/>
  <path d="M 166,288 164,289 162,287 159,290 160,291 159,293 161,295 160,296 161,295 162,296 163,292 Z" fill="#bcbcbc" stroke="none"/>
  <path d="M 108,280 110,286 111,285 113,287 120,286 121,283 118,279 111,285 108,283 111,280 109,279 Z" fill="#bcbcbc" stroke="none"/>
  <path d="M 120,270 124,274 127,271 130,274 130,271 129,270 128,271 126,270 124,272 121,269 Z" fill="#bcbcbc" stroke="none"/>
  <path d="M 187,250 190,253 188,255 189,257 195,254 197,255 200,253 195,252 193,250 194,249 190,251 188,249 Z" fill="#bcbcbc" stroke="none"/>
  <path d="M 504,190 503,191 503,194 500,197 503,199 505,197 504,195 Z" fill="#bcbcbc" stroke="none"/>
  <path d="M 509,189 509,194 510,195 509,196 510,197 509,199 510,200 515,195 512,198 510,196 510,190 Z" fill="#bcbcbc" stroke="none"/>
  <path d="M 209,175 207,175 205,177 204,176 205,178 201,182 202,183 201,182 203,180 205,181 Z" fill="#bcbcbc" stroke="none"/>
  <path d="M 247,176 246,175 244,176 242,174 241,175 241,177 238,180 237,179 236,180 237,181 239,181 244,176 246,177 Z" fill="#bcbcbc" stroke="none"/>
  <path d="M 171,171 168,174 170,173 173,176 170,180 170,187 174,196 174,179 Z" fill="#bcbcbc" stroke="none"/>
  <path d="M 248,169 247,170 247,172 248,172 249,173 250,173 251,172 251,170 250,169 249,170 Z" fill="#bcbcbc" stroke="none"/>
  <path d="M 204,168 206,172 209,170 212,173 211,174 215,171 212,168 210,171 208,169 206,170 Z" fill="#bcbcbc" stroke="none"/>
  <path d="M 581,158 620,188 618,416 622,184 Z" fill="#bcbcbc" stroke="none"/>
  <path d="M 420,541 420,543 424,548 426,546 Z" fill="#bfbfbf" stroke="none"/>
  <path d="M 174,477 173,477 173,478 170,481 168,482 166,481 165,483 166,484 170,483 174,479 Z" fill="#bfbfbf" stroke="none"/>
  <path d="M 155,242 155,245 158,247 156,249 151,246 152,245 150,248 156,252 160,252 163,246 Z" fill="#bfbfbf" stroke="none"/>
  <path d="M 645,606 643,615 645,627 641,635 646,635 Z" fill="#c0c0c0" stroke="none"/>
  <path d="M 349,567 347,565 348,564 345,562 341,567 337,569 338,570 341,570 Z" fill="#c0c0c0" stroke="none"/>
  <path d="M 327,552 326,555 327,556 330,556 331,555 329,553 330,552 Z" fill="#c0c0c0" stroke="none"/>
  <path d="M 485,550 484,551 483,550 482,550 481,551 481,553 483,555 482,556 486,551 Z" fill="#c0c0c0" stroke="none"/>
  <path d="M 369,553 367,551 365,551 364,550 363,552 363,555 362,556 363,557 364,556 365,557 Z" fill="#c0c0c0" stroke="none"/>
  <path d="M 246,533 247,535 246,536 250,539 253,540 261,540 262,539 261,535 257,532 Z" fill="#c0c0c0" stroke="none"/>
  <path d="M 113,526 112,527 114,529 114,531 115,532 115,529 117,527 116,526 115,527 114,527 Z" fill="#c0c0c0" stroke="none"/>
  <path d="M 262,524 259,527 261,529 261,530 262,531 263,530 263,528 262,527 Z" fill="#c0c0c0" stroke="none"/>
  <path d="M 218,524 215,520 214,521 210,521 209,522 208,521 208,523 215,527 214,526 216,524 217,525 Z" fill="#c0c0c0" stroke="none"/>
  <path d="M 163,524 118,535 42,608 90,606 91,635 141,635 123,595 45,610 Z" fill="#c0c0c0" stroke="none"/>
  <path d="M 439,515 438,516 440,518 440,520 439,521 439,522 440,523 443,519 Z" fill="#c0c0c0" stroke="none"/>
  <path d="M 462,534 439,529 432,514 422,526 420,515 415,538 401,532 414,541 401,540 399,550 412,547 399,565 414,552 416,567 423,557 463,563 Z" fill="#c0c0c0" stroke="none"/>
  <path d="M 266,516 272,533 286,528 297,552 314,553 309,538 303,544 294,533 307,521 300,519 295,530 Z" fill="#c0c0c0" stroke="none"/>
  <path d="M 220,512 221,514 223,515 226,515 227,516 229,513 229,512 228,512 226,514 223,514 221,512 Z" fill="#c0c0c0" stroke="none"/>
  <path d="M 122,506 117,509 115,508 112,511 110,507 105,513 101,513 107,513 109,515 112,513 114,515 113,514 116,511 118,512 Z" fill="#c0c0c0" stroke="none"/>
  <path d="M 131,483 127,491 124,489 130,500 128,504 133,507 135,504 131,501 134,500 129,495 132,492 130,490 132,487 Z" fill="#c0c0c0" stroke="none"/>
  <path d="M 484,480 479,481 480,484 476,487 478,492 482,486 484,487 486,485 485,483 486,482 Z" fill="#c0c0c0" stroke="none"/>
  <path d="M 279,474 275,480 270,474 270,476 273,479 272,480 273,483 277,480 276,479 Z" fill="#c0c0c0" stroke="none"/>
  <path d="M 474,472 473,472 470,475 470,477 473,480 472,481 473,482 475,480 473,478 473,476 472,475 474,473 Z" fill="#c0c0c0" stroke="none"/>
  <path d="M 121,473 112,475 110,470 104,487 107,489 108,484 113,479 118,485 122,476 Z" fill="#c0c0c0" stroke="none"/>
  <path d="M 185,472 176,471 186,483 170,498 156,488 166,474 146,481 158,492 154,501 168,500 162,510 152,507 188,503 Z" fill="#c0c0c0" stroke="none"/>
  <path d="M 124,466 123,467 123,470 124,471 125,471 127,469 127,468 125,466 Z" fill="#c0c0c0" stroke="none"/>
  <path d="M 105,464 103,466 103,467 104,468 107,469 106,468 108,466 Z" fill="#c0c0c0" stroke="none"/>
  <path d="M 447,458 449,474 468,486 467,480 459,479 469,471 464,467 468,464 463,464 462,473 454,478 451,472 458,466 454,469 Z" fill="#c0c0c0" stroke="none"/>
  <path d="M 110,447 109,447 108,450 105,453 106,454 107,453 108,453 108,452 111,449 111,448 Z" fill="#c0c0c0" stroke="none"/>
  <path d="M 103,424 97,427 94,440 98,442 97,447 103,452 102,447 106,444 100,436 104,429 101,427 Z" fill="#c0c0c0" stroke="none"/>
  <path d="M 92,425 90,424 87,427 86,426 84,427 83,426 82,427 83,428 86,427 88,429 89,432 92,427 Z" fill="#c0c0c0" stroke="none"/>
  <path d="M 294,419 301,426 303,426 304,427 304,426 302,425 298,420 295,418 Z" fill="#c0c0c0" stroke="none"/>
  <path d="M 149,416 144,429 137,426 134,428 126,426 124,428 132,433 147,430 Z" fill="#c0c0c0" stroke="none"/>
  <path d="M 248,409 245,414 246,417 244,419 245,422 246,421 245,418 247,416 249,410 Z" fill="#c0c0c0" stroke="none"/>
  <path d="M 423,400 397,435 409,443 425,417 429,417 426,408 422,407 425,406 Z" fill="#c0c0c0" stroke="none"/>
  <path d="M 152,395 148,399 153,408 156,409 155,406 156,402 154,400 155,399 154,400 152,398 153,397 Z" fill="#c0c0c0" stroke="none"/>
  <path d="M 460,394 464,398 461,401 469,399 472,402 479,403 479,399 473,395 474,390 471,388 466,397 Z" fill="#c0c0c0" stroke="none"/>
  <path d="M 186,386 187,387 185,389 185,391 187,393 188,392 188,388 Z" fill="#c0c0c0" stroke="none"/>
  <path d="M 122,386 119,393 123,393 125,387 139,391 140,402 147,413 141,402 140,387 Z" fill="#c0c0c0" stroke="none"/>
  <path d="M 273,379 249,406 268,387 290,446 244,428 250,458 268,445 257,476 280,472 270,448 302,441 Z" fill="#c0c0c0" stroke="none"/>
  <path d="M 96,377 94,380 92,379 88,384 89,386 88,384 91,381 97,387 99,386 97,384 98,382 95,379 Z" fill="#c0c0c0" stroke="none"/>
  <path d="M 303,377 324,405 325,426 325,396 350,412 349,398 379,387 336,402 Z" fill="#c0c0c0" stroke="none"/>
  <path d="M 177,374 174,376 174,378 173,379 173,381 176,383 177,382 176,379 178,376 Z" fill="#c0c0c0" stroke="none"/>
  <path d="M 214,371 210,374 213,377 213,379 211,381 209,379 210,380 209,382 211,384 213,383 216,378 212,375 Z" fill="#c0c0c0" stroke="none"/>
  <path d="M 282,357 274,376 275,375 277,379 278,378 275,375 282,361 Z" fill="#c0c0c0" stroke="none"/>
  <path d="M 101,357 107,366 104,368 101,365 100,368 102,367 107,369 108,363 105,359 Z" fill="#c0c0c0" stroke="none"/>
  <path d="M 440,346 440,347 444,350 446,350 447,351 449,350 448,350 446,348 444,344 442,344 Z" fill="#c0c0c0" stroke="none"/>
  <path d="M 451,341 451,343 452,342 455,342 457,344 459,343 459,342 455,339 453,339 Z" fill="#c0c0c0" stroke="none"/>
  <path d="M 294,335 289,342 290,344 291,343 292,344 295,341 295,339 296,338 294,336 Z" fill="#c0c0c0" stroke="none"/>
  <path d="M 390,330 374,374 347,355 307,370 341,359 366,382 397,350 401,403 380,430 408,393 Z" fill="#c0c0c0" stroke="none"/>
  <path d="M 176,322 175,323 178,326 179,325 182,328 182,330 183,331 180,325 181,324 Z" fill="#c0c0c0" stroke="none"/>
  <path d="M 477,313 470,323 479,332 445,369 456,373 457,360 469,379 464,388 491,332 Z" fill="#c0c0c0" stroke="none"/>
  <path d="M 93,308 100,315 100,317 98,319 105,314 105,313 100,314 96,310 97,308 95,307 Z" fill="#c0c0c0" stroke="none"/>
  <path d="M 110,303 106,307 106,310 107,309 108,310 110,308 111,309 111,304 Z" fill="#c0c0c0" stroke="none"/>
  <path d="M 469,307 470,308 474,308 477,311 478,310 480,310 480,308 475,302 Z" fill="#c0c0c0" stroke="none"/>
  <path d="M 169,300 172,308 171,311 174,315 176,313 179,317 180,316 177,311 175,313 173,311 Z" fill="#c0c0c0" stroke="none"/>
  <path d="M 471,300 469,301 467,299 467,298 465,300 464,299 463,300 464,302 463,303 467,300 469,302 Z" fill="#c0c0c0" stroke="none"/>
  <path d="M 341,300 329,302 331,311 325,315 314,315 305,307 290,308 320,320 335,319 332,302 Z" fill="#c0c0c0" stroke="none"/>
  <path d="M 111,295 110,296 110,300 111,301 114,298 Z" fill="#c0c0c0" stroke="none"/>
  <path d="M 484,290 481,293 482,295 480,299 484,302 491,303 493,297 492,294 489,291 Z" fill="#c0c0c0" stroke="none"/>
  <path d="M 191,287 190,288 191,291 192,291 194,293 195,296 196,296 197,295 197,293 196,292 194,292 192,290 192,287 Z" fill="#c0c0c0" stroke="none"/>
  <path d="M 395,287 387,301 356,315 344,299 347,314 339,318 395,300 Z" fill="#c0c0c0" stroke="none"/>
  <path d="M 121,284 121,286 120,287 121,288 122,288 123,289 126,287 127,288 128,288 125,287 122,284 Z" fill="#c0c0c0" stroke="none"/>
  <path d="M 102,284 101,285 102,286 102,288 104,290 105,289 105,288 104,287 104,286 Z" fill="#c0c0c0" stroke="none"/>
  <path d="M 178,282 177,283 179,288 174,292 174,296 177,296 179,298 181,294 184,297 181,293 181,286 179,284 180,283 Z" fill="#c0c0c0" stroke="none"/>
  <path d="M 298,276 305,281 313,280 311,275 310,276 311,277 307,280 301,272 Z" fill="#c0c0c0" stroke="none"/>
  <path d="M 108,271 106,272 107,275 107,282 107,280 109,278 112,280 113,279 109,276 109,272 Z" fill="#c0c0c0" stroke="none"/>
  <path d="M 481,270 480,271 479,270 476,271 477,272 475,274 475,276 477,278 480,277 482,275 483,272 Z" fill="#c0c0c0" stroke="none"/>
  <path d="M 156,270 155,278 157,281 159,279 163,281 162,286 164,288 170,278 168,277 165,281 158,275 Z" fill="#c0c0c0" stroke="none"/>
  <path d="M 372,277 373,281 381,282 385,274 386,281 393,283 384,269 379,280 374,280 Z" fill="#c0c0c0" stroke="none"/>
  <path d="M 438,269 434,269 432,267 433,265 431,267 430,266 426,271 423,269 423,267 422,271 427,276 426,275 432,270 Z" fill="#c0c0c0" stroke="none"/>
  <path d="M 461,254 469,260 461,274 468,279 467,284 473,270 465,266 468,263 482,264 Z" fill="#c0c0c0" stroke="none"/>
  <path d="M 373,253 371,255 371,256 375,260 379,256 375,253 Z" fill="#c0c0c0" stroke="none"/>
  <path d="M 474,253 476,255 478,254 483,255 486,254 487,252 486,251 483,251 481,249 478,248 Z" fill="#c0c0c0" stroke="none"/>
  <path d="M 106,249 104,247 103,248 100,248 99,249 100,250 98,252 96,250 95,251 96,253 97,253 104,247 Z" fill="#c0c0c0" stroke="none"/>
  <path d="M 135,251 146,259 143,268 168,264 169,275 174,263 185,262 178,256 189,258 187,249 182,255 174,249 174,258 161,266 146,260 148,246 142,254 Z" fill="#c0c0c0" stroke="none"/>
  <path d="M 117,244 117,253 112,255 117,258 120,254 123,256 118,260 118,265 123,260 129,261 129,258 123,248 Z" fill="#c0c0c0" stroke="none"/>
  <path d="M 485,238 484,239 484,243 487,247 489,245 489,241 486,238 Z" fill="#c0c0c0" stroke="none"/>
  <path d="M 151,240 156,241 159,239 171,246 165,240 163,241 158,235 155,240 Z" fill="#c0c0c0" stroke="none"/>
  <path d="M 117,231 114,235 113,238 115,236 116,237 117,236 116,235 118,233 118,232 Z" fill="#c0c0c0" stroke="none"/>
  <path d="M 477,211 478,212 479,212 480,211 481,212 482,211 483,212 481,210 482,209 480,207 Z" fill="#c0c0c0" stroke="none"/>
  <path d="M 200,204 199,217 203,211 203,217 211,218 227,232 224,227 233,222 226,219 231,214 210,203 Z" fill="#c0c0c0" stroke="none"/>
  <path d="M 238,199 237,200 239,202 235,206 234,205 236,208 239,210 243,210 245,212 248,211 241,205 242,204 241,200 Z" fill="#c0c0c0" stroke="none"/>
  <path d="M 220,184 218,184 223,191 216,197 212,192 213,188 210,188 212,197 215,196 219,199 227,194 221,189 Z" fill="#c0c0c0" stroke="none"/>
  <path d="M 188,187 190,186 192,187 194,185 197,187 199,185 192,180 191,183 193,185 191,187 190,186 Z" fill="#c0c0c0" stroke="none"/>
  <path d="M 210,175 205,182 206,185 204,187 202,186 203,190 207,185 206,182 Z" fill="#c0c0c0" stroke="none"/>
  <path d="M 134,172 130,181 133,184 141,181 143,183 141,186 146,187 143,182 145,180 149,182 146,179 142,181 139,179 137,183 131,181 137,176 Z" fill="#c0c0c0" stroke="none"/>
  <path d="M 483,163 482,162 479,165 476,161 475,164 472,167 471,166 470,167 475,171 474,166 476,164 481,166 Z" fill="#c0c0c0" stroke="none"/>
  <path d="M 254,161 254,165 251,168 252,172 250,174 254,170 260,183 260,174 Z" fill="#c0c0c0" stroke="none"/>
  <path d="M 297,146 302,176 304,163 325,198 316,226 307,200 308,227 287,223 302,242 331,209 Z" fill="#c0c0c0" stroke="none"/>
  <path d="M 199,152 200,161 202,154 206,159 218,159 221,149 216,148 214,158 207,153 210,146 Z" fill="#c0c0c0" stroke="none"/>
  <path d="M 464,148 468,153 471,149 474,152 476,151 475,149 476,148 475,147 474,148 470,145 469,146 468,145 Z" fill="#c0c0c0" stroke="none"/>
  <path d="M 265,136 258,159 268,187 270,177 283,206 276,203 292,217 300,194 295,165 Z" fill="#c0c0c0" stroke="none"/>
  <path d="M 260,129 268,130 281,138 284,136 273,128 270,130 265,128 Z" fill="#c0c0c0" stroke="none"/>
  <path d="M 429,126 402,164 417,199 386,225 360,210 339,229 383,248 432,162 403,175 Z" fill="#c0c0c0" stroke="none"/>
  <path d="M 597,95 645,604 646,149 590,127 Z" fill="#c0c0c0" stroke="none"/>
  <path d="M 600,57 544,110 494,205 480,185 472,222 474,199 500,215 490,195 528,178 Z" fill="#c0c0c0" stroke="none"/>
  <path d="M 426,536 424,536 421,540 421,541 423,543 424,543 427,539 427,537 Z" fill="#c2c2c2" stroke="none"/>
  <path d="M 172,475 171,475 169,477 168,477 167,478 168,479 167,480 168,481 169,480 170,480 172,478 172,477 173,476 Z" fill="#c2c2c2" stroke="none"/>
  <path d="M 447,536 445,538 446,539 445,541 449,542 451,544 450,546 451,547 454,547 455,546 453,544 454,540 450,539 Z" fill="#c4c4c4" stroke="none"/>
  <path d="M 400,533 402,536 400,539 402,538 406,542 412,542 413,541 Z" fill="#c4c4c4" stroke="none"/>
  <path d="M 404,529 406,533 414,537 416,536 414,537 Z" fill="#c4c4c4" stroke="none"/>
  <path d="M 112,528 109,533 112,531 116,536 117,535 119,537 113,531 Z" fill="#c4c4c4" stroke="none"/>
  <path d="M 304,526 302,530 295,533 303,543 307,543 303,539 310,535 308,533 310,531 302,535 300,533 305,529 Z" fill="#c4c4c4" stroke="none"/>
  <path d="M 286,524 288,527 292,526 295,529 296,529 294,524 289,527 Z" fill="#c4c4c4" stroke="none"/>
  <path d="M 434,518 434,520 438,523 438,527 439,528 438,527 438,525 439,524 438,522 439,518 437,520 Z" fill="#c4c4c4" stroke="none"/>
  <path d="M 411,512 411,519 409,521 406,518 404,519 416,532 413,526 417,524 417,516 Z" fill="#c4c4c4" stroke="none"/>
  <path d="M 122,507 119,510 120,511 118,513 116,512 114,514 118,517 120,517 118,515 123,512 120,509 Z" fill="#c4c4c4" stroke="none"/>
  <path d="M 322,485 321,486 320,485 319,486 320,487 319,488 321,490 323,488 323,486 Z" fill="#c4c4c4" stroke="none"/>
  <path d="M 208,486 207,485 204,488 204,489 207,489 208,488 Z" fill="#c4c4c4" stroke="none"/>
  <path d="M 301,473 303,478 306,473 315,483 323,477 317,474 318,479 314,481 307,472 303,475 Z" fill="#c4c4c4" stroke="none"/>
  <path d="M 164,473 163,472 158,477 155,477 153,474 150,477 153,480 155,478 158,478 163,472 Z" fill="#c4c4c4" stroke="none"/>
  <path d="M 271,471 270,473 275,479 277,476 275,477 273,475 276,472 278,474 279,473 277,471 275,472 Z" fill="#c4c4c4" stroke="none"/>
  <path d="M 207,473 210,471 212,473 210,476 211,475 214,477 217,477 218,475 215,476 210,471 Z" fill="#c4c4c4" stroke="none"/>
  <path d="M 263,468 262,468 257,474 258,477 260,477 266,472 Z" fill="#c4c4c4" stroke="none"/>
  <path d="M 487,465 486,466 485,465 484,466 481,465 480,466 482,465 485,468 483,470 481,469 484,471 485,470 484,469 486,467 487,468 Z" fill="#c4c4c4" stroke="none"/>
  <path d="M 467,464 465,467 467,470 468,469 470,471 472,468 468,469 466,467 468,465 471,466 469,464 468,465 Z" fill="#c4c4c4" stroke="none"/>
  <path d="M 321,459 324,463 327,464 333,461 328,464 326,462 328,459 325,462 323,460 324,459 323,458 Z" fill="#c4c4c4" stroke="none"/>
  <path d="M 257,454 254,459 252,457 253,456 250,457 254,460 252,463 253,465 259,464 255,465 253,463 257,460 Z" fill="#c4c4c4" stroke="none"/>
  <path d="M 359,446 337,445 358,455 344,476 345,496 335,505 346,496 Z" fill="#c4c4c4" stroke="none"/>
  <path d="M 108,445 106,445 103,447 104,449 103,451 104,452 107,450 106,451 104,448 106,446 108,447 109,446 Z" fill="#c4c4c4" stroke="none"/>
  <path d="M 489,444 488,445 487,444 484,446 484,448 483,449 485,452 487,452 488,451 487,447 489,445 490,446 Z" fill="#c4c4c4" stroke="none"/>
  <path d="M 243,423 243,428 246,429 247,436 253,443 258,438 269,436 261,436 255,441 247,434 246,422 Z" fill="#c4c4c4" stroke="none"/>
  <path d="M 109,424 107,422 106,423 105,423 104,424 104,425 102,427 103,428 104,428 107,425 108,425 Z" fill="#c4c4c4" stroke="none"/>
  <path d="M 174,415 155,439 162,461 172,456 161,455 162,442 157,439 172,416 184,424 Z" fill="#c4c4c4" stroke="none"/>
  <path d="M 445,412 418,462 438,459 435,431 452,423 445,458 454,477 467,454 459,416 Z" fill="#c4c4c4" stroke="none"/>
  <path d="M 140,403 141,409 147,414 146,424 140,427 131,420 132,424 129,426 145,427 147,414 Z" fill="#c4c4c4" stroke="none"/>
  <path d="M 323,392 336,401 347,394 333,398 Z" fill="#c4c4c4" stroke="none"/>
  <path d="M 129,390 127,390 125,392 124,391 125,392 124,393 126,395 127,395 128,394 127,393 127,392 Z" fill="#c4c4c4" stroke="none"/>
  <path d="M 403,379 401,389 395,391 399,403 387,413 384,424 387,415 400,403 Z" fill="#c4c4c4" stroke="none"/>
  <path d="M 464,376 463,377 467,380 464,383 464,385 468,380 468,379 Z" fill="#c4c4c4" stroke="none"/>
  <path d="M 341,360 333,360 319,371 311,374 306,371 309,374 322,373 333,360 Z" fill="#c4c4c4" stroke="none"/>
  <path d="M 398,352 389,352 383,369 366,383 356,369 360,375 354,382 363,381 363,389 380,386 395,357 402,377 Z" fill="#c4c4c4" stroke="none"/>
  <path d="M 296,348 296,351 300,354 303,354 306,352 304,351 305,352 302,354 300,352 301,350 298,346 Z" fill="#c4c4c4" stroke="none"/>
  <path d="M 168,340 167,346 154,358 159,362 155,367 145,351 146,364 150,363 152,370 170,361 Z" fill="#c4c4c4" stroke="none"/>
  <path d="M 302,334 299,335 296,339 296,342 298,344 304,341 299,342 296,339 300,335 303,336 Z" fill="#c4c4c4" stroke="none"/>
  <path d="M 89,324 87,326 88,328 86,331 87,333 88,332 90,334 89,336 90,335 93,337 94,336 93,335 93,330 91,328 92,327 Z" fill="#c4c4c4" stroke="none"/>
  <path d="M 89,308 89,317 101,328 103,326 97,319 99,317 98,313 92,308 93,307 Z" fill="#c4c4c4" stroke="none"/>
  <path d="M 116,294 110,301 118,303 113,315 124,315 131,331 136,313 130,298 135,312 130,324 Z" fill="#c4c4c4" stroke="none"/>
  <path d="M 433,267 434,268 439,268 441,266 440,265 439,265 438,266 435,265 Z" fill="#c4c4c4" stroke="none"/>
  <path d="M 168,265 169,266 165,270 162,268 165,270 167,276 168,275 166,273 168,271 169,272 170,271 Z" fill="#c4c4c4" stroke="none"/>
  <path d="M 488,179 482,181 483,182 482,184 484,186 483,184 485,182 486,182 488,180 Z" fill="#c4c4c4" stroke="none"/>
  <path d="M 165,150 164,151 162,150 163,151 161,153 159,152 161,154 160,155 162,157 163,157 166,154 165,153 166,152 Z" fill="#c4c4c4" stroke="none"/>
  <path d="M 300,422 309,431 312,429 311,425 310,425 311,427 309,429 304,424 302,424 Z" fill="#cacaca" stroke="none"/>
  <path d="M 336,294 334,299 339,297 342,300 346,297 350,301 350,311 353,314 350,310 351,299 343,294 Z" fill="#cacaca" stroke="none"/>
  <path d="M 295,220 294,221 297,224 296,225 296,226 297,227 298,227 299,226 299,225 Z" fill="#cacaca" stroke="none"/>
  <path d="M 307,169 308,176 317,183 322,193 324,210 324,198 318,180 Z" fill="#cacaca" stroke="none"/>
  <path d="M 255,150 253,152 252,151 251,154 253,161 254,160 257,163 259,161 257,159 256,151 Z" fill="#cacaca" stroke="none"/>
  <path d="M 266,140 268,162 280,187 294,191 298,183 293,166 279,147 Z" fill="#cacaca" stroke="none"/>
  <path d="M 435,139 423,138 411,150 405,176 411,172 419,179 432,167 433,154 421,172 410,163 410,154 423,139 435,148 Z" fill="#cacaca" stroke="none"/>
  <path d="M 284,135 283,139 295,149 295,153 301,159 302,157 295,147 296,145 Z" fill="#cacaca" stroke="none"/>
  <path d="M 591,126 634,130 646,148 646,125 641,122 605,128 598,122 Z" fill="#cacaca" stroke="none"/>
  <path d="M 246,424 246,427 248,429 248,430 248,429 249,428 249,426 247,424 Z" fill="#cdcdcd" stroke="none"/>
  <path d="M 411,154 411,163 415,165 414,162 411,159 Z" fill="#cdcdcd" stroke="none"/>
  <path d="M 71,611 73,613 80,610 82,620 88,625 89,617 85,613 90,607 87,607 86,610 83,607 Z" fill="#d3d3d3" stroke="none"/>
  <path d="M 408,550 407,551 405,549 406,548 404,550 400,550 399,551 397,550 396,552 398,554 399,553 400,554 Z" fill="#d3d3d3" stroke="none"/>
  <path d="M 269,517 266,520 267,523 269,522 271,524 269,526 268,525 267,526 270,528 271,527 271,524 Z" fill="#d3d3d3" stroke="none"/>
  <path d="M 221,511 223,513 226,513 228,511 227,511 226,510 223,510 222,511 Z" fill="#d3d3d3" stroke="none"/>
  <path d="M 424,509 421,513 422,517 420,519 422,517 424,519 424,521 425,520 426,521 428,515 Z" fill="#d3d3d3" stroke="none"/>
  <path d="M 167,500 165,499 160,506 156,501 152,501 150,503 157,508 162,509 166,505 163,502 Z" fill="#d3d3d3" stroke="none"/>
  <path d="M 102,489 102,492 104,494 106,495 110,495 107,492 107,490 104,488 Z" fill="#d3d3d3" stroke="none"/>
  <path d="M 191,485 187,487 189,490 186,493 188,496 189,496 188,494 189,492 188,488 Z" fill="#d3d3d3" stroke="none"/>
  <path d="M 119,422 119,423 123,427 124,427 126,425 127,425 126,425 123,422 Z" fill="#d3d3d3" stroke="none"/>
  <path d="M 179,390 178,390 178,391 175,394 173,399 174,400 176,398 177,399 179,397 179,394 180,393 180,391 Z" fill="#d3d3d3" stroke="none"/>
  <path d="M 102,359 97,369 94,367 96,361 91,360 96,362 94,368 97,371 101,364 104,367 106,366 Z" fill="#d3d3d3" stroke="none"/>
  <path d="M 115,350 111,352 112,353 111,355 113,357 112,360 114,362 117,361 120,358 121,359 120,354 118,354 Z" fill="#d3d3d3" stroke="none"/>
  <path d="M 124,275 125,276 126,275 128,277 128,279 131,283 127,287 130,286 131,287 132,285 128,278 128,275 127,274 Z" fill="#d3d3d3" stroke="none"/>
  <path d="M 136,260 136,261 134,263 138,267 140,265 140,264 139,263 137,265 135,263 137,261 Z" fill="#d3d3d3" stroke="none"/>
  <path d="M 130,251 128,252 128,255 129,257 132,259 133,258 131,256 133,254 136,254 133,251 Z" fill="#d3d3d3" stroke="none"/>
  <path d="M 139,242 137,241 132,244 134,246 135,246 136,245 135,243 137,241 139,243 138,244 Z" fill="#d3d3d3" stroke="none"/>
  <path d="M 182,238 184,240 183,241 184,240 186,242 184,244 186,243 188,245 186,248 188,248 189,242 188,243 186,241 187,240 186,239 184,240 Z" fill="#d3d3d3" stroke="none"/>
  <path d="M 169,227 165,226 164,227 161,227 160,229 162,231 165,229 167,231 Z" fill="#d3d3d3" stroke="none"/>
  <path d="M 472,214 471,215 472,218 473,219 474,218 475,219 476,218 474,216 474,214 473,215 Z" fill="#d3d3d3" stroke="none"/>
  <path d="M 488,199 486,201 486,202 488,204 488,207 490,208 493,205 493,204 492,203 490,203 488,201 Z" fill="#d3d3d3" stroke="none"/>
  <path d="M 217,199 215,197 213,197 212,198 211,197 212,198 212,200 209,203 208,203 210,202 212,203 213,200 215,198 Z" fill="#d3d3d3" stroke="none"/>
  <path d="M 206,189 208,189 210,191 209,190 209,188 211,186 214,187 215,185 214,186 209,186 208,185 Z" fill="#d3d3d3" stroke="none"/>
  <path d="M 147,177 146,178 150,182 150,184 148,186 148,187 150,185 151,182 Z" fill="#d3d3d3" stroke="none"/>
  <path d="M 536,122 514,157 Z" fill="#d3d3d3" stroke="none"/>
  <path d="M 399,533 399,534 396,537 397,537 398,538 400,538 401,537 401,536 399,534 Z" fill="#d6d6d6" stroke="none"/>
  <path d="M 313,531 312,532 311,531 309,533 311,535 312,534 313,534 313,533 314,532 Z" fill="#d6d6d6" stroke="none"/>
  <path d="M 148,520 146,522 146,525 144,527 142,526 141,527 142,530 150,530 151,529 151,527 150,526 149,527 147,525 149,522 150,523 Z" fill="#d6d6d6" stroke="none"/>
  <path d="M 402,519 400,523 402,527 415,536 416,533 Z" fill="#d6d6d6" stroke="none"/>
  <path d="M 422,518 420,520 420,522 421,523 422,523 423,522 423,519 Z" fill="#d6d6d6" stroke="none"/>
  <path d="M 278,515 276,517 277,518 277,520 278,521 281,518 280,517 279,518 277,516 Z" fill="#d6d6d6" stroke="none"/>
  <path d="M 293,514 291,516 292,518 290,520 289,519 287,520 288,522 287,524 289,526 294,523 296,524 298,522 300,524 295,519 296,517 Z" fill="#d6d6d6" stroke="none"/>
  <path d="M 145,506 144,507 145,508 144,511 145,512 143,514 140,511 139,512 141,514 140,515 141,516 144,514 147,509 Z" fill="#d6d6d6" stroke="none"/>
  <path d="M 197,489 196,490 197,491 195,493 192,492 191,493 190,491 189,493 190,492 195,496 193,498 194,499 196,499 195,498 197,496 195,494 198,491 Z" fill="#d6d6d6" stroke="none"/>
  <path d="M 211,473 203,474 203,468 197,468 200,475 208,478 196,483 189,478 192,485 189,489 194,484 203,488 Z" fill="#d6d6d6" stroke="none"/>
  <path d="M 172,460 169,462 165,459 162,462 163,466 162,469 165,464 164,462 166,460 170,465 Z" fill="#d6d6d6" stroke="none"/>
  <path d="M 259,448 264,454 262,456 259,455 257,458 258,460 254,463 255,464 264,461 261,457 265,453 Z" fill="#d6d6d6" stroke="none"/>
  <path d="M 426,446 425,447 425,450 426,451 428,451 430,449 430,447 429,446 Z" fill="#d6d6d6" stroke="none"/>
  <path d="M 209,445 208,446 209,448 208,449 208,451 211,453 213,451 212,450 213,448 Z" fill="#d6d6d6" stroke="none"/>
  <path d="M 333,442 301,470 316,480 316,464 336,483 329,499 309,503 324,523 357,455 Z" fill="#d6d6d6" stroke="none"/>
  <path d="M 278,427 274,431 254,439 267,434 270,436 270,439 274,436 273,432 Z" fill="#d6d6d6" stroke="none"/>
  <path d="M 280,426 283,429 283,431 284,430 287,432 287,431 284,427 283,428 281,426 Z" fill="#d6d6d6" stroke="none"/>
  <path d="M 452,424 441,427 441,437 436,431 439,428 439,456 440,441 452,443 450,456 Z" fill="#d6d6d6" stroke="none"/>
  <path d="M 172,417 158,439 163,442 162,455 175,454 180,461 192,458 192,465 196,456 189,459 189,451 183,450 187,427 Z" fill="#d6d6d6" stroke="none"/>
  <path d="M 139,395 134,408 139,422 120,421 130,425 131,419 140,426 145,424 146,414 140,409 Z" fill="#d6d6d6" stroke="none"/>
  <path d="M 365,384 353,382 359,373 352,378 355,386 360,382 364,385 358,395 337,393 333,397 323,391 333,397 358,395 Z" fill="#d6d6d6" stroke="none"/>
  <path d="M 349,364 333,361 322,374 315,375 319,377 319,382 319,377 331,368 334,361 Z" fill="#d6d6d6" stroke="none"/>
  <path d="M 395,358 391,369 381,377 380,387 382,385 381,378 395,368 397,369 Z" fill="#d6d6d6" stroke="none"/>
  <path d="M 168,342 168,347 169,349 171,350 172,349 171,348 171,346 172,344 170,345 168,343 Z" fill="#d6d6d6" stroke="none"/>
  <path d="M 153,339 148,345 146,352 155,366 158,362 153,358 156,341 Z" fill="#d6d6d6" stroke="none"/>
  <path d="M 297,339 299,341 303,341 306,339 304,337 302,337 301,336 300,336 Z" fill="#d6d6d6" stroke="none"/>
  <path d="M 93,313 92,314 92,317 94,319 95,318 95,315 Z" fill="#d6d6d6" stroke="none"/>
  <path d="M 116,302 113,302 112,303 112,308 114,310 117,307 117,303 Z" fill="#d6d6d6" stroke="none"/>
  <path d="M 124,295 125,312 128,307 133,313 130,316 126,314 131,323 134,312 129,305 128,297 Z" fill="#d6d6d6" stroke="none"/>
  <path d="M 158,266 157,267 159,274 166,280 167,277 164,270 161,269 Z" fill="#d6d6d6" stroke="none"/>
  <path d="M 152,264 149,266 147,265 145,267 146,268 145,269 147,267 151,266 153,268 150,273 154,270 Z" fill="#d6d6d6" stroke="none"/>
  <path d="M 178,258 181,260 184,260 185,259 185,258 184,257 179,257 Z" fill="#d6d6d6" stroke="none"/>
  <path d="M 132,256 138,261 136,263 137,264 139,262 141,264 143,262 143,258 137,255 133,255 Z" fill="#d6d6d6" stroke="none"/>
  <path d="M 159,229 157,235 167,238 172,245 180,238 183,240 176,247 181,253 183,251 178,248 183,240 181,235 172,239 165,230 Z" fill="#d6d6d6" stroke="none"/>
  <path d="M 457,155 458,157 462,160 463,160 465,158 464,157 462,159 458,156 459,155 458,154 Z" fill="#d6d6d6" stroke="none"/>
  <path d="M 478,142 477,142 475,144 474,143 472,143 471,144 471,145 472,146 477,145 477,143 Z" fill="#d6d6d6" stroke="none"/>
  <path d="M 536,121 526,133 523,143 515,153 Z" fill="#d6d6d6" stroke="none"/>
  <path d="M 77,611 74,613 78,611 80,613 78,616 80,622 85,626 87,635 90,635 87,629 88,626 79,616 81,612 Z" fill="#dcdcdc" stroke="none"/>
  <path d="M 95,557 68,578 43,588 41,594 Z" fill="#dcdcdc" stroke="none"/>
  <path d="M 87,432 86,434 87,435 84,438 89,433 92,436 91,438 93,440 94,437 90,432 89,433 Z" fill="#dcdcdc" stroke="none"/>
  <path d="M 105,403 103,402 101,404 100,404 100,405 98,407 97,406 97,407 98,408 99,407 101,408 105,404 Z" fill="#dcdcdc" stroke="none"/>
  <path d="M 203,386 202,386 200,384 197,387 198,388 199,387 202,388 203,387 Z" fill="#dcdcdc" stroke="none"/>
  <path d="M 183,384 188,386 193,382 197,383 202,377 187,385 184,381 186,377 Z" fill="#dcdcdc" stroke="none"/>
  <path d="M 165,373 164,374 165,375 165,378 167,380 168,380 170,377 169,376 168,377 166,375 166,373 Z" fill="#dcdcdc" stroke="none"/>
  <path d="M 444,368 446,367 448,369 447,371 454,375 447,368 450,365 448,367 446,366 Z" fill="#dcdcdc" stroke="none"/>
  <path d="M 455,363 453,366 459,372 456,375 459,372 460,373 462,370 458,369 455,366 456,365 Z" fill="#dcdcdc" stroke="none"/>
  <path d="M 177,326 176,326 177,328 175,330 176,332 171,338 172,340 171,341 172,341 171,338 177,332 176,330 Z" fill="#dcdcdc" stroke="none"/>
  <path d="M 181,323 186,337 180,341 181,344 178,350 182,347 187,336 Z" fill="#dcdcdc" stroke="none"/>
  <path d="M 168,312 166,314 167,315 168,315 171,318 173,316 173,315 171,312 Z" fill="#dcdcdc" stroke="none"/>
  <path d="M 174,309 175,311 177,310 179,312 179,314 180,315 182,314 178,310 175,310 Z" fill="#dcdcdc" stroke="none"/>
  <path d="M 170,295 169,296 172,300 171,303 173,307 175,304 179,306 180,305 176,302 178,298 176,297 177,298 174,302 170,298 173,296 Z" fill="#dcdcdc" stroke="none"/>
  <path d="M 458,293 457,299 465,309 472,310 475,313 474,315 476,313 475,310 467,306 470,303 465,302 462,304 457,297 Z" fill="#dcdcdc" stroke="none"/>
  <path d="M 188,287 187,288 189,290 189,291 185,295 184,295 185,296 186,296 190,292 189,288 Z" fill="#dcdcdc" stroke="none"/>
  <path d="M 103,284 107,290 106,292 108,291 110,294 111,293 113,295 115,294 114,295 112,293 113,292 112,293 108,289 109,288 107,286 108,285 107,283 104,285 Z" fill="#dcdcdc" stroke="none"/>
  <path d="M 350,286 354,290 357,287 360,287 361,288 363,287 362,284 358,284 355,282 353,282 Z" fill="#dcdcdc" stroke="none"/>
  <path d="M 120,272 127,280 124,284 126,286 129,285 130,283 128,281 126,276 125,277 Z" fill="#dcdcdc" stroke="none"/>
  <path d="M 196,270 195,271 193,270 190,273 188,272 189,273 186,277 187,278 190,277 192,279 194,277 190,273 192,271 194,272 Z" fill="#dcdcdc" stroke="none"/>
  <path d="M 117,242 119,244 120,244 123,241 122,240 121,241 118,240 117,241 Z" fill="#dcdcdc" stroke="none"/>
  <path d="M 187,209 185,211 187,213 187,214 188,215 190,213 189,212 190,211 190,210 189,211 Z" fill="#dcdcdc" stroke="none"/>
  <path d="M 200,183 199,184 200,185 198,187 199,189 198,190 199,189 200,190 202,190 201,189 201,186 202,185 Z" fill="#dcdcdc" stroke="none"/>
  <path d="M 212,174 209,178 209,180 207,182 209,185 211,185 210,184 211,182 211,180 210,179 213,175 Z" fill="#dcdcdc" stroke="none"/>
  <path d="M 247,167 245,169 245,170 241,173 242,172 245,175 247,173 246,172 246,169 Z" fill="#dcdcdc" stroke="none"/>
  <path d="M 643,111 610,112 606,117 602,113 593,117 592,125 598,121 602,127 641,121 646,124 Z" fill="#dcdcdc" stroke="none"/>
  <path d="M 583,60 577,82 555,89 537,119 555,96 573,89 Z" fill="#dcdcdc" stroke="none"/>
  <path d="M 449,519 448,520 445,518 443,521 443,523 440,527 441,528 443,527 445,528 448,525 Z" fill="#e0e0e0" stroke="none"/>
  <path d="M 144,506 141,507 141,508 140,509 143,513 144,512 143,511 144,510 144,508 143,507 Z" fill="#e0e0e0" stroke="none"/>
  <path d="M 144,492 145,493 154,493 155,492 152,490 151,491 147,490 Z" fill="#e0e0e0" stroke="none"/>
  <path d="M 195,488 191,488 190,489 191,492 189,494 190,497 193,499 192,498 194,496 190,493 192,491 195,492 196,491 Z" fill="#e0e0e0" stroke="none"/>
  <path d="M 311,467 311,472 313,474 315,472 317,473 319,472 321,474 323,473 318,466 313,465 Z" fill="#e0e0e0" stroke="none"/>
  <path d="M 462,458 461,459 460,458 459,459 459,462 460,463 462,461 462,460 463,459 Z" fill="#e0e0e0" stroke="none"/>
  <path d="M 150,470 157,476 172,467 193,473 191,481 207,478 189,468 192,459 180,462 175,455 161,472 Z" fill="#e0e0e0" stroke="none"/>
  <path d="M 327,449 320,454 337,459 330,471 331,479 335,480 339,475 339,457 342,452 Z" fill="#e0e0e0" stroke="none"/>
  <path d="M 253,450 254,452 258,454 261,454 262,455 263,454 263,453 257,448 255,448 Z" fill="#e0e0e0" stroke="none"/>
  <path d="M 295,443 293,445 293,446 295,448 296,448 298,445 296,443 Z" fill="#e0e0e0" stroke="none"/>
  <path d="M 440,442 440,454 442,456 446,456 448,454 448,450 451,443 450,442 447,446 Z" fill="#e0e0e0" stroke="none"/>
  <path d="M 273,436 272,437 272,438 270,440 271,441 271,442 273,444 274,443 274,437 Z" fill="#e0e0e0" stroke="none"/>
  <path d="M 463,432 461,434 461,437 463,439 465,439 467,437 467,435 464,432 Z" fill="#e0e0e0" stroke="none"/>
  <path d="M 284,431 283,432 283,446 286,447 288,445 289,442 288,440 289,439 287,437 287,433 Z" fill="#e0e0e0" stroke="none"/>
  <path d="M 440,428 437,431 437,434 439,436 441,436 443,434 443,431 Z" fill="#e0e0e0" stroke="none"/>
  <path d="M 174,419 167,427 166,438 171,445 169,452 177,449 177,440 170,437 171,433 178,433 183,429 Z" fill="#e0e0e0" stroke="none"/>
  <path d="M 437,413 436,414 437,415 437,416 439,418 440,418 441,417 441,414 440,413 439,414 438,413 Z" fill="#e0e0e0" stroke="none"/>
  <path d="M 120,393 115,410 118,419 123,418 127,422 131,418 137,423 133,410 137,392 131,390 127,396 Z" fill="#e0e0e0" stroke="none"/>
  <path d="M 206,380 203,381 201,383 201,384 204,386 205,385 206,385 208,383 208,382 Z" fill="#e0e0e0" stroke="none"/>
  <path d="M 396,369 382,378 383,385 366,401 358,419 362,423 364,419 378,429 387,410 397,403 393,392 402,378 Z" fill="#e0e0e0" stroke="none"/>
  <path d="M 175,324 171,325 171,331 167,334 170,338 170,344 170,338 175,332 Z" fill="#e0e0e0" stroke="none"/>
  <path d="M 128,308 127,309 127,312 126,313 128,315 130,315 132,313 131,312 131,311 Z" fill="#e0e0e0" stroke="none"/>
  <path d="M 172,297 171,298 174,301 176,298 175,297 Z" fill="#e0e0e0" stroke="none"/>
  <path d="M 183,280 182,281 183,282 181,284 182,285 182,293 185,294 188,290 186,288 187,286 183,282 184,281 Z" fill="#e0e0e0" stroke="none"/>
  <path d="M 151,267 150,268 147,268 145,270 144,270 148,274 148,275 150,272 150,270 152,268 Z" fill="#e0e0e0" stroke="none"/>
  <path d="M 186,246 185,245 184,246 180,246 179,248 182,251 183,250 184,251 186,249 185,248 Z" fill="#e0e0e0" stroke="none"/>
  <path d="M 137,245 136,246 136,247 137,248 137,249 138,250 139,250 141,248 138,245 Z" fill="#e0e0e0" stroke="none"/>
  <path d="M 182,240 180,239 178,241 173,244 173,246 175,247 Z" fill="#e0e0e0" stroke="none"/>
  <path d="M 212,229 214,231 217,228 218,228 219,229 220,228 219,227 218,228 217,228 216,227 214,227 Z" fill="#e0e0e0" stroke="none"/>
  <path d="M 153,224 149,233 145,230 142,237 138,235 135,238 145,246 151,236 155,238 156,233 160,231 Z" fill="#e0e0e0" stroke="none"/>
  <path d="M 185,212 183,214 183,215 185,217 186,217 187,216 187,215 Z" fill="#e0e0e0" stroke="none"/>
  <path d="M 192,191 199,203 209,202 211,200 209,195 210,192 208,190 199,190 196,192 Z" fill="#e0e0e0" stroke="none"/>
  <path d="M 0,635 132,188 242,450 373,251 430,416 646,0 0,0 Z" fill="#e0e0e0" stroke="none"/>
</svg>