<?xml version="1.0" encoding="UTF-8"?>
<svg xmlns="http://www.w3.org/2000/svg" width="361" height="306" viewBox="0 0 361 306">
  <path d="M 324,29 321,35 322,45 329,52 329,43 Z" fill="#47ff47" stroke="none"/>
  <path d="M 334,22 326,27 332,42 332,53 339,54 337,28 Z" fill="#4aff4a" stroke="none"/>
  <path d="M 194,223 191,219 187,217 183,219 180,223 Z" fill="#4cc7ff" stroke="none"/>
  <path d="M 195,226 179,226 176,234 178,249 187,259 193,255 198,242 Z" fill="#4cc8ff" stroke="none"/>
  <path d="M 284,222 275,227 271,241 276,250 290,254 299,249 303,235 298,226 Z" fill="#4d4dff" stroke="none"/>
  <path d="M 41,73 41,103 43,103 51,96 53,85 49,77 Z" fill="#ff4c4c" stroke="none"/>
  <path d="M 34,72 23,80 22,94 29,102 38,104 38,72 Z" fill="#ff4d4d" stroke="none"/>
  <path d="M 244,123 226,138 228,149 233,157 243,154 247,146 248,134 Z" fill="#ffc64b" stroke="none"/>
  <path d="M 243,121 237,117 233,119 228,127 226,135 233,131 Z" fill="#ffc74c" stroke="none"/>
  <path d="M 55,252 44,259 41,270 48,281 59,284 70,277 73,266 66,255 Z" fill="#ffff4c" stroke="none"/>
</svg>