<?xml version="1.0" encoding="UTF-8"?>
<svg xmlns="http://www.w3.org/2000/svg" width="625" height="599" viewBox="0 0 625 599">
  <path d="M 274,541 304,545 292,544 287,542 287,540 282,542 Z" fill="#5a5a5a" stroke="none"/>
  <path d="M 290,546 284,546 281,543 272,545 266,544 276,546 Z" fill="#5e5e5e" stroke="none"/>
  <path d="M 109,543 100,540 88,547 89,549 98,549 95,549 93,545 100,540 106,544 Z" fill="#5e5e5e" stroke="none"/>
  <path d="M 254,545 275,546 266,546 265,544 Z" fill="#5f5f5f" stroke="none"/>
  <path d="M 270,552 313,555 Z" fill="#707070" stroke="none"/>
  <path d="M 331,558 353,557 331,557 Z" fill="#71716f" stroke="none"/>
  <path d="M 369,558 370,559 383,559 385,558 Z" fill="#737371" stroke="none"/>
  <path d="M 547,127 547,130 552,130 552,129 551,128 551,127 Z" fill="#747372" stroke="none"/>
  <path d="M 557,228 557,230 555,231 556,236 554,238 554,242 552,243 554,245 553,247 Z" fill="#747474" stroke="none"/>
  <path d="M 552,106 553,107 551,108 552,109 551,113 549,115 550,114 551,117 547,121 551,122 552,121 551,111 553,107 Z" fill="#747474" stroke="none"/>
  <path d="M 217,558 220,558 221,557 229,557 229,556 221,556 220,557 217,557 Z" fill="#767574" stroke="none"/>
  <path d="M 202,557 204,558 214,558 216,557 Z" fill="#777675" stroke="none"/>
  <path d="M 537,127 538,127 539,126 540,126 541,127 542,126 543,126 543,124 539,124 Z" fill="#787776" stroke="none"/>
  <path d="M 529,141 534,141 535,142 536,142 537,141 537,139 531,139 Z" fill="#797877" stroke="none"/>
  <path d="M 524,143 528,145 530,142 532,143 532,145 534,145 536,143 534,142 528,142 527,144 Z" fill="#7a7978" stroke="none"/>
  <path d="M 329,561 369,562 Z" fill="#7c7b7a" stroke="none"/>
  <path d="M 370,562 403,563 Z" fill="#7d7c7b" stroke="none"/>
  <path d="M 404,563 426,567 426,566 Z" fill="#7e7d7c" stroke="none"/>
  <path d="M 202,560 201,561 188,561 190,562 201,562 Z" fill="#7e7d7c" stroke="none"/>
  <path d="M 188,562 189,564 200,564 201,563 204,563 203,562 201,563 190,563 Z" fill="#838280" stroke="none"/>
  <path d="M 42,570 41,571 40,571 39,570 40,569 39,569 36,572 36,574 37,574 Z" fill="#888a88" stroke="none"/>
  <path d="M 579,380 584,438 Z" fill="#9b9b9b" stroke="none"/>
  <path d="M 579,277 578,313 Z" fill="#9c9c9c" stroke="none"/>
  <path d="M 331,573 340,573 346,571 343,572 330,571 Z" fill="#9e9d9b" stroke="none"/>
  <path d="M 579,314 579,378 Z" fill="#9e9d9b" stroke="none"/>
  <path d="M 599,572 598,572 596,576 596,580 592,586 596,582 Z" fill="#9f9e9c" stroke="none"/>
  <path d="M 329,573 362,574 347,572 340,574 Z" fill="#a09f9d" stroke="none"/>
  <path d="M 579,315 581,378 Z" fill="#a09f9d" stroke="none"/>
  <path d="M 363,573 363,575 403,578 394,575 Z" fill="#a1a09e" stroke="none"/>
  <path d="M 410,579 419,580 420,581 425,581 425,580 420,580 419,579 Z" fill="#a4a3a1" stroke="none"/>
  <path d="M 564,549 564,551 565,552 565,555 566,556 566,557 567,557 567,555 566,554 566,550 565,549 Z" fill="#a6a5a3" stroke="none"/>
  <path d="M 586,346 586,363 587,363 587,349 Z" fill="#a7a8a3" stroke="none"/>
  <path d="M 586,364 586,376 587,377 587,364 Z" fill="#a8a9a5" stroke="none"/>
  <path d="M 586,315 587,348 Z" fill="#a9aaa6" stroke="none"/>
  <path d="M 292,576 294,577 298,576 312,577 309,576 Z" fill="#abaaa8" stroke="none"/>
  <path d="M 254,576 256,575 271,575 269,574 261,574 260,575 254,575 Z" fill="#adacab" stroke="none"/>
  <path d="M 589,282 588,283 588,289 589,290 589,302 590,302 Z" fill="#adacab" stroke="none"/>
  <path d="M 595,174 594,174 595,184 593,187 593,192 594,192 595,187 Z" fill="#adacab" stroke="none"/>
  <path d="M 270,158 268,160 270,163 270,166 269,167 270,170 271,169 270,168 270,162 272,161 Z" fill="#ae9ba2" stroke="none"/>
  <path d="M 238,576 253,576 253,575 241,575 240,576 Z" fill="#aeadac" stroke="none"/>
  <path d="M 588,303 591,363 Z" fill="#aeadac" stroke="none"/>
  <path d="M 593,193 593,213 594,213 594,193 Z" fill="#aeadac" stroke="none"/>
  <path d="M 590,364 590,378 591,378 591,364 Z" fill="#afaead" stroke="none"/>
  <path d="M 594,214 593,214 592,217 592,232 592,227 593,226 592,221 594,219 Z" fill="#afaead" stroke="none"/>
  <path d="M 536,432 531,454 535,436 537,435 Z" fill="#afb4af" stroke="none"/>
  <path d="M 548,526 548,531 549,532 549,536 551,538 551,541 550,530 Z" fill="#b0afae" stroke="none"/>
  <path d="M 590,303 592,363 Z" fill="#b0afae" stroke="none"/>
  <path d="M 597,177 596,203 Z" fill="#b2b2b0" stroke="none"/>
  <path d="M 554,521 556,535 558,538 556,523 Z" fill="#b4b3b1" stroke="none"/>
  <path d="M 597,204 595,229 597,218 Z" fill="#b4b3b1" stroke="none"/>
  <path d="M 531,493 531,495 532,496 532,504 533,504 533,495 532,493 Z" fill="#b6b4b0" stroke="none"/>
  <path d="M 595,230 591,258 592,263 594,257 Z" fill="#b6b4b2" stroke="none"/>
  <path d="M 529,493 530,506 531,505 531,496 530,495 530,493 Z" fill="#b7b6b1" stroke="none"/>
  <path d="M 592,264 591,279 594,285 595,302 596,284 593,280 594,267 Z" fill="#b7b6b3" stroke="none"/>
  <path d="M 598,204 598,218 596,229 598,227 Z" fill="#b7b6b3" stroke="none"/>
  <path d="M 606,587 605,587 603,592 600,595 599,598 601,598 602,595 605,591 Z" fill="#b7b7b2" stroke="none"/>
  <path d="M 272,580 274,581 290,581 291,582 291,581 285,581 284,580 Z" fill="#b8b7b4" stroke="none"/>
  <path d="M 594,303 595,363 Z" fill="#b8b7b4" stroke="none"/>
  <path d="M 597,230 594,263 Z" fill="#b8b7b4" stroke="none"/>
  <path d="M 594,379 597,407 Z" fill="#b8b8b8" stroke="none"/>
  <path d="M 255,579 255,580 271,580 269,579 Z" fill="#b9b8b6" stroke="none"/>
  <path d="M 595,364 594,364 594,378 595,377 Z" fill="#b9b8b6" stroke="none"/>
  <path d="M 594,264 597,302 597,269 Z" fill="#b9b8b6" stroke="none"/>
  <path d="M 532,509 532,516 533,517 533,519 533,518 534,517 534,514 533,513 533,509 Z" fill="#bab9b7" stroke="none"/>
  <path d="M 598,230 595,263 597,263 Z" fill="#bab9b7" stroke="none"/>
  <path d="M 362,586 350,584 344,586 335,585 Z" fill="#babab6" stroke="none"/>
  <path d="M 517,491 516,492 516,501 518,503 518,492 Z" fill="#babdbc" stroke="none"/>
  <path d="M 531,509 530,510 530,519 531,520 531,522 532,521 532,517 531,516 Z" fill="#bbbab8" stroke="none"/>
  <path d="M 363,585 403,589 Z" fill="#bbbcb7" stroke="none"/>
  <path d="M 527,509 527,511 528,512 528,523 529,523 530,522 530,520 529,519 529,511 Z" fill="#bcbbb9" stroke="none"/>
  <path d="M 598,303 597,363 Z" fill="#bcbbb9" stroke="none"/>
  <path d="M 526,509 525,510 525,514 527,516 527,522 526,523 526,525 528,524 527,523 527,512 Z" fill="#bdbcba" stroke="none"/>
  <path d="M 598,364 597,364 597,377 596,378 598,377 Z" fill="#bdbcba" stroke="none"/>
  <path d="M 597,379 600,407 Z" fill="#bebebe" stroke="none"/>
  <path d="M 335,588 362,590 353,588 Z" fill="#c0c1bd" stroke="none"/>
  <path d="M 600,379 602,407 602,388 Z" fill="#c2c2c2" stroke="none"/>
  <path d="M 404,593 411,593 416,595 418,594 422,596 426,595 Z" fill="#c2c3bf" stroke="none"/>
</svg>