<?xml version="1.0" encoding="UTF-8"?>
<svg xmlns="http://www.w3.org/2000/svg" width="290" height="238" viewBox="0 0 290 238">
  <path d="M 207,25 180,45 175,83 195,110 233,115 260,95 265,57 245,30 Z" fill="#0d05ff" stroke="none"/>
  <path d="M 48,203 95,205 Z" fill="#19a00a" stroke="none"/>
  <path d="M 43,213 47,210 100,213 46,210 Z" fill="#1ba20c" stroke="none"/>
  <path d="M 23,24 23,109 46,82 98,82 117,110 117,58 46,48 Z" fill="#ff0d05" stroke="none"/>
  <path d="M 24,113 116,115 102,104 96,86 48,86 41,102 Z" fill="#ff1605" stroke="none"/>
  <path d="M 37,24 48,44 97,44 116,54 115,24 Z" fill="#ff1605" stroke="none"/>
</svg>